<svg xmlns="http://www.w3.org/2000/svg" xmlns:xlink="http://www.w3.org/1999/xlink" width="500" zoomAndPan="magnify" viewBox="0 0 375 374.999991" height="500" preserveAspectRatio="xMidYMid meet" version="1.0"><defs><g/></defs><g fill="#000000" fill-opacity="1"><g transform="translate(169.271477, 189.749988)"><g><path d="M 3.75 -8.34375 C 4.132812 -8.34375 4.46875 -8.296875 4.75 -8.203125 C 5.03125 -8.109375 5.265625 -8 5.453125 -7.875 C 5.640625 -7.75 5.78125 -7.617188 5.875 -7.484375 C 5.976562 -7.359375 6.046875 -7.257812 6.078125 -7.1875 C 6.085938 -7.15625 6.09375 -7.125 6.09375 -7.09375 C 6.101562 -7.070312 6.109375 -7.050781 6.109375 -7.03125 C 6.109375 -6.988281 6.097656 -6.957031 6.078125 -6.9375 C 6.054688 -6.914062 6.03125 -6.878906 6 -6.828125 C 5.96875 -6.785156 5.9375 -6.753906 5.90625 -6.734375 C 5.882812 -6.722656 5.851562 -6.710938 5.8125 -6.703125 C 5.78125 -6.691406 5.75 -6.675781 5.71875 -6.65625 C 5.695312 -6.644531 5.675781 -6.617188 5.65625 -6.578125 C 5.59375 -6.460938 5.503906 -6.40625 5.390625 -6.40625 C 5.328125 -6.40625 5.265625 -6.421875 5.203125 -6.453125 C 5.140625 -6.492188 5.066406 -6.546875 4.984375 -6.609375 C 4.910156 -6.671875 4.820312 -6.738281 4.71875 -6.8125 C 4.613281 -6.894531 4.484375 -6.96875 4.328125 -7.03125 C 4.179688 -7.09375 4.003906 -7.144531 3.796875 -7.1875 C 3.585938 -7.226562 3.34375 -7.25 3.0625 -7.25 C 2.75 -7.25 2.472656 -7.195312 2.234375 -7.09375 C 1.992188 -7 1.773438 -6.859375 1.578125 -6.671875 C 1.398438 -6.503906 1.265625 -6.328125 1.171875 -6.140625 C 1.085938 -5.960938 1.046875 -5.789062 1.046875 -5.625 C 1.046875 -5.425781 1.113281 -5.242188 1.25 -5.078125 C 1.34375 -4.960938 1.476562 -4.847656 1.65625 -4.734375 C 1.84375 -4.617188 2.039062 -4.507812 2.25 -4.40625 C 2.46875 -4.300781 2.675781 -4.207031 2.875 -4.125 C 3.082031 -4.039062 3.253906 -3.972656 3.390625 -3.921875 C 3.503906 -3.867188 3.578125 -3.816406 3.609375 -3.765625 C 3.648438 -3.710938 3.671875 -3.660156 3.671875 -3.609375 C 3.671875 -3.546875 3.660156 -3.484375 3.640625 -3.421875 C 3.617188 -3.359375 3.609375 -3.289062 3.609375 -3.21875 C 3.609375 -3.1875 3.609375 -3.15625 3.609375 -3.125 C 3.617188 -3.101562 3.625 -3.078125 3.625 -3.046875 C 3.625 -2.984375 3.601562 -2.929688 3.5625 -2.890625 C 3.53125 -2.847656 3.484375 -2.804688 3.421875 -2.765625 C 3.359375 -2.734375 3.285156 -2.703125 3.203125 -2.671875 C 3.128906 -2.648438 3.054688 -2.628906 2.984375 -2.609375 C 2.867188 -2.566406 2.722656 -2.507812 2.546875 -2.4375 C 2.367188 -2.375 2.195312 -2.285156 2.03125 -2.171875 C 1.875 -2.066406 1.734375 -1.929688 1.609375 -1.765625 C 1.492188 -1.609375 1.4375 -1.410156 1.4375 -1.171875 C 1.4375 -1.015625 1.46875 -0.867188 1.53125 -0.734375 C 1.601562 -0.597656 1.703125 -0.476562 1.828125 -0.375 C 1.953125 -0.269531 2.097656 -0.1875 2.265625 -0.125 C 2.441406 -0.0703125 2.632812 -0.046875 2.84375 -0.046875 C 3.3125 -0.046875 3.734375 -0.144531 4.109375 -0.34375 C 4.492188 -0.550781 4.8125 -0.835938 5.0625 -1.203125 C 5.113281 -1.273438 5.175781 -1.382812 5.25 -1.53125 C 5.332031 -1.6875 5.414062 -1.867188 5.5 -2.078125 C 5.519531 -2.117188 5.546875 -2.148438 5.578125 -2.171875 C 5.609375 -2.203125 5.640625 -2.21875 5.671875 -2.21875 C 5.691406 -2.21875 5.710938 -2.207031 5.734375 -2.1875 C 5.753906 -2.175781 5.765625 -2.15625 5.765625 -2.125 C 5.765625 -2.09375 5.742188 -2.023438 5.703125 -1.921875 C 5.671875 -1.828125 5.625 -1.710938 5.5625 -1.578125 C 5.5 -1.441406 5.421875 -1.296875 5.328125 -1.140625 C 5.242188 -0.984375 5.148438 -0.832031 5.046875 -0.6875 C 4.910156 -0.488281 4.75 -0.300781 4.5625 -0.125 C 4.375 0.0507812 4.171875 0.203125 3.953125 0.328125 C 3.742188 0.453125 3.515625 0.550781 3.265625 0.625 C 3.015625 0.695312 2.753906 0.734375 2.484375 0.734375 C 2.242188 0.734375 2 0.695312 1.75 0.625 C 1.507812 0.5625 1.285156 0.460938 1.078125 0.328125 C 0.878906 0.191406 0.71875 0.0195312 0.59375 -0.1875 C 0.46875 -0.40625 0.40625 -0.65625 0.40625 -0.9375 C 0.40625 -1.21875 0.457031 -1.460938 0.5625 -1.671875 C 0.675781 -1.878906 0.8125 -2.050781 0.96875 -2.1875 C 1.132812 -2.332031 1.3125 -2.445312 1.5 -2.53125 C 1.6875 -2.625 1.863281 -2.695312 2.03125 -2.75 C 2.195312 -2.8125 2.332031 -2.859375 2.4375 -2.890625 C 2.550781 -2.929688 2.609375 -2.96875 2.609375 -3 C 2.609375 -3.03125 2.578125 -3.054688 2.515625 -3.078125 C 2.460938 -3.109375 2.390625 -3.140625 2.296875 -3.171875 C 2.203125 -3.210938 2.097656 -3.253906 1.984375 -3.296875 C 1.867188 -3.347656 1.75 -3.410156 1.625 -3.484375 C 1.425781 -3.585938 1.25 -3.695312 1.09375 -3.8125 C 0.9375 -3.925781 0.800781 -4.050781 0.6875 -4.1875 C 0.582031 -4.332031 0.5 -4.488281 0.4375 -4.65625 C 0.382812 -4.820312 0.359375 -5.003906 0.359375 -5.203125 C 0.359375 -5.472656 0.398438 -5.738281 0.484375 -6 C 0.566406 -6.269531 0.679688 -6.519531 0.828125 -6.75 C 0.984375 -6.976562 1.164062 -7.191406 1.375 -7.390625 C 1.582031 -7.585938 1.8125 -7.753906 2.0625 -7.890625 C 2.3125 -8.035156 2.578125 -8.144531 2.859375 -8.21875 C 3.148438 -8.300781 3.445312 -8.34375 3.75 -8.34375 Z M 3.75 -8.34375 "/></g></g><g transform="translate(175.347649, 189.749988)"><g><path d="M 4.3125 -2.21875 C 4.332031 -2.21875 4.351562 -2.207031 4.375 -2.1875 C 4.394531 -2.175781 4.40625 -2.15625 4.40625 -2.125 C 4.40625 -2.09375 4.398438 -2.0625 4.390625 -2.03125 C 4.265625 -1.6875 4.148438 -1.378906 4.046875 -1.109375 C 3.941406 -0.847656 3.835938 -0.628906 3.734375 -0.453125 C 3.640625 -0.273438 3.535156 -0.140625 3.421875 -0.046875 C 3.316406 0.0351562 3.195312 0.078125 3.0625 0.078125 C 2.894531 0.078125 2.757812 0.0390625 2.65625 -0.03125 C 2.5625 -0.113281 2.484375 -0.210938 2.421875 -0.328125 C 2.359375 -0.453125 2.316406 -0.585938 2.296875 -0.734375 C 2.285156 -0.890625 2.28125 -1.039062 2.28125 -1.1875 C 2.28125 -1.289062 2.28125 -1.394531 2.28125 -1.5 C 2.28125 -1.601562 2.28125 -1.703125 2.28125 -1.796875 C 2.289062 -1.890625 2.296875 -1.972656 2.296875 -2.046875 C 2.304688 -2.117188 2.3125 -2.179688 2.3125 -2.234375 C 2.3125 -2.304688 2.296875 -2.359375 2.265625 -2.390625 C 2.242188 -2.421875 2.21875 -2.4375 2.1875 -2.4375 C 2.15625 -2.4375 2.125 -2.421875 2.09375 -2.390625 C 2.070312 -2.359375 2.054688 -2.320312 2.046875 -2.28125 C 2.023438 -2.226562 1.992188 -2.140625 1.953125 -2.015625 C 1.921875 -1.898438 1.878906 -1.765625 1.828125 -1.609375 C 1.773438 -1.460938 1.71875 -1.304688 1.65625 -1.140625 C 1.601562 -0.972656 1.550781 -0.820312 1.5 -0.6875 C 1.4375 -0.519531 1.378906 -0.378906 1.328125 -0.265625 C 1.273438 -0.160156 1.222656 -0.078125 1.171875 -0.015625 C 1.117188 0.0351562 1.066406 0.0703125 1.015625 0.09375 C 0.960938 0.113281 0.914062 0.125 0.875 0.125 C 0.84375 0.125 0.804688 0.113281 0.765625 0.09375 C 0.722656 0.0820312 0.679688 0.0546875 0.640625 0.015625 C 0.609375 -0.015625 0.582031 -0.0546875 0.5625 -0.109375 C 0.539062 -0.171875 0.53125 -0.25 0.53125 -0.34375 C 0.519531 -0.539062 0.515625 -0.753906 0.515625 -0.984375 C 0.515625 -1.222656 0.515625 -1.453125 0.515625 -1.671875 C 0.515625 -1.773438 0.515625 -1.875 0.515625 -1.96875 C 0.515625 -2.070312 0.515625 -2.164062 0.515625 -2.25 C 0.515625 -2.363281 0.507812 -2.441406 0.5 -2.484375 C 0.488281 -2.535156 0.472656 -2.5625 0.453125 -2.5625 C 0.410156 -2.5625 0.375 -2.519531 0.34375 -2.4375 C 0.3125 -2.351562 0.257812 -2.222656 0.1875 -2.046875 C 0.164062 -1.992188 0.140625 -1.953125 0.109375 -1.921875 C 0.0859375 -1.898438 0.0664062 -1.890625 0.046875 -1.890625 C 0.015625 -1.890625 -0.00390625 -1.898438 -0.015625 -1.921875 C -0.0351562 -1.941406 -0.046875 -1.972656 -0.046875 -2.015625 C -0.046875 -2.035156 -0.0351562 -2.078125 -0.015625 -2.140625 C 0.00390625 -2.203125 0.0234375 -2.265625 0.046875 -2.328125 C 0.078125 -2.398438 0.109375 -2.472656 0.140625 -2.546875 C 0.171875 -2.628906 0.195312 -2.695312 0.21875 -2.75 C 0.257812 -2.84375 0.300781 -2.9375 0.34375 -3.03125 C 0.394531 -3.125 0.453125 -3.210938 0.515625 -3.296875 C 0.578125 -3.378906 0.644531 -3.445312 0.71875 -3.5 C 0.789062 -3.550781 0.867188 -3.578125 0.953125 -3.578125 C 1.066406 -3.578125 1.164062 -3.515625 1.25 -3.390625 C 1.34375 -3.265625 1.390625 -3.070312 1.390625 -2.8125 C 1.398438 -2.613281 1.40625 -2.421875 1.40625 -2.234375 C 1.40625 -2.054688 1.40625 -1.898438 1.40625 -1.765625 C 1.414062 -1.628906 1.421875 -1.519531 1.421875 -1.4375 C 1.421875 -1.363281 1.425781 -1.328125 1.4375 -1.328125 C 1.4375 -1.328125 1.453125 -1.359375 1.484375 -1.421875 C 1.515625 -1.492188 1.550781 -1.585938 1.59375 -1.703125 C 1.632812 -1.816406 1.679688 -1.945312 1.734375 -2.09375 C 1.785156 -2.25 1.84375 -2.398438 1.90625 -2.546875 C 1.96875 -2.691406 2.03125 -2.832031 2.09375 -2.96875 C 2.164062 -3.113281 2.234375 -3.238281 2.296875 -3.34375 C 2.367188 -3.457031 2.441406 -3.539062 2.515625 -3.59375 C 2.597656 -3.65625 2.691406 -3.6875 2.796875 -3.6875 C 2.929688 -3.6875 3.03125 -3.601562 3.09375 -3.4375 C 3.15625 -3.269531 3.1875 -3.046875 3.1875 -2.765625 C 3.1875 -2.703125 3.1875 -2.617188 3.1875 -2.515625 C 3.1875 -2.410156 3.179688 -2.300781 3.171875 -2.1875 C 3.171875 -2.070312 3.164062 -1.957031 3.15625 -1.84375 C 3.15625 -1.738281 3.15625 -1.640625 3.15625 -1.546875 C 3.15625 -1.378906 3.160156 -1.242188 3.171875 -1.140625 C 3.179688 -1.046875 3.195312 -0.972656 3.21875 -0.921875 C 3.25 -0.867188 3.273438 -0.832031 3.296875 -0.8125 C 3.328125 -0.789062 3.359375 -0.78125 3.390625 -0.78125 C 3.460938 -0.78125 3.53125 -0.8125 3.59375 -0.875 C 3.664062 -0.945312 3.726562 -1.046875 3.78125 -1.171875 C 3.84375 -1.296875 3.898438 -1.429688 3.953125 -1.578125 C 4.015625 -1.734375 4.082031 -1.898438 4.15625 -2.078125 C 4.1875 -2.171875 4.238281 -2.21875 4.3125 -2.21875 Z M 4.3125 -2.21875 "/></g></g><g transform="translate(179.548821, 189.749988)"><g><path d="M 1.859375 -3.796875 C 1.941406 -3.796875 2.007812 -3.773438 2.0625 -3.734375 C 2.125 -3.703125 2.171875 -3.660156 2.203125 -3.609375 C 2.242188 -3.554688 2.269531 -3.492188 2.28125 -3.421875 C 2.300781 -3.347656 2.3125 -3.273438 2.3125 -3.203125 C 2.3125 -3.085938 2.289062 -2.960938 2.25 -2.828125 C 2.21875 -2.691406 2.164062 -2.5625 2.09375 -2.4375 C 2.019531 -2.320312 1.929688 -2.222656 1.828125 -2.140625 C 1.722656 -2.066406 1.601562 -2.03125 1.46875 -2.03125 C 1.382812 -2.03125 1.34375 -2.0625 1.34375 -2.125 C 1.34375 -2.164062 1.351562 -2.222656 1.375 -2.296875 C 1.40625 -2.378906 1.421875 -2.488281 1.421875 -2.625 C 1.421875 -2.664062 1.414062 -2.707031 1.40625 -2.75 C 1.40625 -2.800781 1.394531 -2.847656 1.375 -2.890625 C 1.363281 -2.929688 1.34375 -2.96875 1.3125 -3 C 1.289062 -3.03125 1.253906 -3.046875 1.203125 -3.046875 C 1.109375 -3.046875 1.019531 -3 0.9375 -2.90625 C 0.863281 -2.820312 0.796875 -2.710938 0.734375 -2.578125 C 0.679688 -2.453125 0.640625 -2.3125 0.609375 -2.15625 C 0.578125 -2 0.5625 -1.851562 0.5625 -1.71875 C 0.5625 -1.570312 0.570312 -1.445312 0.59375 -1.34375 C 0.625 -1.25 0.660156 -1.171875 0.703125 -1.109375 C 0.753906 -1.054688 0.8125 -1.019531 0.875 -1 C 0.9375 -0.976562 1 -0.96875 1.0625 -0.96875 C 1.21875 -0.96875 1.351562 -1.007812 1.46875 -1.09375 C 1.582031 -1.175781 1.679688 -1.269531 1.765625 -1.375 C 1.859375 -1.476562 1.929688 -1.570312 1.984375 -1.65625 C 2.035156 -1.738281 2.078125 -1.78125 2.109375 -1.78125 C 2.148438 -1.78125 2.171875 -1.742188 2.171875 -1.671875 C 2.179688 -1.609375 2.1875 -1.53125 2.1875 -1.4375 C 2.1875 -1.363281 2.179688 -1.253906 2.171875 -1.109375 C 2.160156 -0.972656 2.148438 -0.816406 2.140625 -0.640625 C 2.140625 -0.460938 2.128906 -0.273438 2.109375 -0.078125 C 2.097656 0.117188 2.085938 0.304688 2.078125 0.484375 C 2.066406 0.660156 2.054688 0.816406 2.046875 0.953125 C 2.035156 1.097656 2.03125 1.210938 2.03125 1.296875 C 2.007812 1.640625 1.988281 1.929688 1.96875 2.171875 C 1.945312 2.410156 1.925781 2.613281 1.90625 2.78125 C 1.882812 2.945312 1.863281 3.082031 1.84375 3.1875 C 1.832031 3.289062 1.816406 3.378906 1.796875 3.453125 C 1.785156 3.503906 1.757812 3.546875 1.71875 3.578125 C 1.675781 3.617188 1.628906 3.644531 1.578125 3.65625 C 1.535156 3.675781 1.488281 3.691406 1.4375 3.703125 C 1.394531 3.722656 1.363281 3.738281 1.34375 3.75 C 1.238281 3.832031 1.15625 3.894531 1.09375 3.9375 C 1.039062 3.988281 0.988281 4.015625 0.9375 4.015625 C 0.90625 4.015625 0.878906 4 0.859375 3.96875 C 0.835938 3.945312 0.828125 3.910156 0.828125 3.859375 C 0.828125 3.835938 0.828125 3.800781 0.828125 3.75 C 0.835938 3.707031 0.84375 3.671875 0.84375 3.640625 C 0.84375 3.628906 0.847656 3.613281 0.859375 3.59375 C 0.867188 3.570312 0.875 3.53125 0.875 3.46875 C 0.882812 3.40625 0.894531 3.320312 0.90625 3.21875 C 0.925781 3.125 0.945312 2.992188 0.96875 2.828125 C 1 2.660156 1.03125 2.453125 1.0625 2.203125 C 1.09375 1.960938 1.128906 1.671875 1.171875 1.328125 C 1.179688 1.242188 1.191406 1.125 1.203125 0.96875 C 1.222656 0.820312 1.242188 0.660156 1.265625 0.484375 C 1.285156 0.304688 1.300781 0.125 1.3125 -0.0625 C 1.332031 -0.257812 1.347656 -0.441406 1.359375 -0.609375 C 1.359375 -0.628906 1.351562 -0.640625 1.34375 -0.640625 C 1.332031 -0.640625 1.316406 -0.625 1.296875 -0.59375 C 1.285156 -0.5625 1.265625 -0.519531 1.234375 -0.46875 C 1.203125 -0.425781 1.160156 -0.375 1.109375 -0.3125 C 1.066406 -0.257812 1.015625 -0.203125 0.953125 -0.140625 C 0.878906 -0.078125 0.800781 -0.0234375 0.71875 0.015625 C 0.632812 0.0546875 0.546875 0.078125 0.453125 0.078125 C 0.359375 0.078125 0.269531 0.0507812 0.1875 0 C 0.101562 -0.0625 0.03125 -0.140625 -0.03125 -0.234375 C -0.09375 -0.335938 -0.140625 -0.457031 -0.171875 -0.59375 C -0.210938 -0.726562 -0.234375 -0.875 -0.234375 -1.03125 C -0.234375 -1.375 -0.179688 -1.691406 -0.078125 -1.984375 C 0.0234375 -2.285156 0.203125 -2.585938 0.453125 -2.890625 C 0.566406 -3.035156 0.6875 -3.164062 0.8125 -3.28125 C 0.945312 -3.394531 1.078125 -3.488281 1.203125 -3.5625 C 1.328125 -3.644531 1.445312 -3.703125 1.5625 -3.734375 C 1.675781 -3.773438 1.773438 -3.796875 1.859375 -3.796875 Z M 1.859375 -3.796875 "/></g></g><g transform="translate(182.443352, 189.749988)"><g><path d="M 3.265625 -2.046875 C 3.148438 -1.691406 3.039062 -1.378906 2.9375 -1.109375 C 2.832031 -0.847656 2.726562 -0.628906 2.625 -0.453125 C 2.53125 -0.273438 2.425781 -0.140625 2.3125 -0.046875 C 2.195312 0.0351562 2.066406 0.078125 1.921875 0.078125 C 1.828125 0.078125 1.742188 0.046875 1.671875 -0.015625 C 1.609375 -0.078125 1.554688 -0.144531 1.515625 -0.21875 C 1.472656 -0.300781 1.441406 -0.378906 1.421875 -0.453125 C 1.398438 -0.523438 1.382812 -0.570312 1.375 -0.59375 C 1.375 -0.601562 1.367188 -0.613281 1.359375 -0.625 C 1.359375 -0.644531 1.351562 -0.65625 1.34375 -0.65625 C 1.34375 -0.65625 1.335938 -0.644531 1.328125 -0.625 C 1.316406 -0.613281 1.3125 -0.601562 1.3125 -0.59375 C 1.300781 -0.570312 1.269531 -0.519531 1.21875 -0.4375 C 1.164062 -0.363281 1.097656 -0.285156 1.015625 -0.203125 C 0.941406 -0.128906 0.851562 -0.0625 0.75 0 C 0.65625 0.0507812 0.554688 0.078125 0.453125 0.078125 C 0.359375 0.078125 0.269531 0.0507812 0.1875 0 C 0.101562 -0.0625 0.03125 -0.140625 -0.03125 -0.234375 C -0.09375 -0.335938 -0.140625 -0.457031 -0.171875 -0.59375 C -0.210938 -0.726562 -0.234375 -0.875 -0.234375 -1.03125 C -0.234375 -1.375 -0.179688 -1.691406 -0.078125 -1.984375 C 0.0234375 -2.285156 0.203125 -2.585938 0.453125 -2.890625 C 0.566406 -3.035156 0.6875 -3.164062 0.8125 -3.28125 C 0.945312 -3.394531 1.078125 -3.488281 1.203125 -3.5625 C 1.328125 -3.644531 1.445312 -3.703125 1.5625 -3.734375 C 1.675781 -3.773438 1.773438 -3.796875 1.859375 -3.796875 C 1.910156 -3.796875 1.960938 -3.785156 2.015625 -3.765625 C 2.078125 -3.742188 2.128906 -3.707031 2.171875 -3.65625 C 2.210938 -3.613281 2.242188 -3.554688 2.265625 -3.484375 C 2.296875 -3.410156 2.3125 -3.316406 2.3125 -3.203125 C 2.3125 -3.085938 2.289062 -2.960938 2.25 -2.828125 C 2.21875 -2.691406 2.164062 -2.5625 2.09375 -2.4375 C 2.019531 -2.320312 1.929688 -2.222656 1.828125 -2.140625 C 1.722656 -2.066406 1.601562 -2.03125 1.46875 -2.03125 C 1.382812 -2.03125 1.34375 -2.0625 1.34375 -2.125 C 1.34375 -2.164062 1.351562 -2.234375 1.375 -2.328125 C 1.394531 -2.429688 1.40625 -2.523438 1.40625 -2.609375 C 1.40625 -2.648438 1.398438 -2.691406 1.390625 -2.734375 C 1.390625 -2.785156 1.378906 -2.832031 1.359375 -2.875 C 1.347656 -2.925781 1.328125 -2.96875 1.296875 -3 C 1.273438 -3.03125 1.242188 -3.046875 1.203125 -3.046875 C 1.085938 -3.046875 0.988281 -2.992188 0.90625 -2.890625 C 0.832031 -2.796875 0.769531 -2.675781 0.71875 -2.53125 C 0.664062 -2.394531 0.625 -2.25 0.59375 -2.09375 C 0.570312 -1.945312 0.5625 -1.820312 0.5625 -1.71875 C 0.5625 -1.5625 0.570312 -1.429688 0.59375 -1.328125 C 0.625 -1.234375 0.65625 -1.15625 0.6875 -1.09375 C 0.726562 -1.039062 0.773438 -1 0.828125 -0.96875 C 0.878906 -0.945312 0.929688 -0.9375 0.984375 -0.9375 C 1.109375 -0.9375 1.222656 -0.976562 1.328125 -1.0625 C 1.429688 -1.15625 1.519531 -1.253906 1.59375 -1.359375 C 1.664062 -1.460938 1.726562 -1.554688 1.78125 -1.640625 C 1.832031 -1.734375 1.875 -1.78125 1.90625 -1.78125 C 1.9375 -1.78125 1.957031 -1.738281 1.96875 -1.65625 C 1.988281 -1.476562 2.015625 -1.332031 2.046875 -1.21875 C 2.078125 -1.113281 2.101562 -1.023438 2.125 -0.953125 C 2.15625 -0.890625 2.179688 -0.84375 2.203125 -0.8125 C 2.234375 -0.789062 2.265625 -0.78125 2.296875 -0.78125 C 2.359375 -0.78125 2.414062 -0.8125 2.46875 -0.875 C 2.53125 -0.945312 2.59375 -1.039062 2.65625 -1.15625 C 2.71875 -1.28125 2.78125 -1.421875 2.84375 -1.578125 C 2.90625 -1.734375 2.96875 -1.898438 3.03125 -2.078125 C 3.070312 -2.171875 3.125 -2.21875 3.1875 -2.21875 C 3.25 -2.21875 3.28125 -2.179688 3.28125 -2.109375 C 3.28125 -2.085938 3.273438 -2.066406 3.265625 -2.046875 Z M 3.265625 -2.046875 "/></g></g><g transform="translate(185.519523, 189.749988)"><g><path d="M 1.859375 -3.796875 C 1.941406 -3.796875 2.007812 -3.773438 2.0625 -3.734375 C 2.125 -3.703125 2.171875 -3.660156 2.203125 -3.609375 C 2.242188 -3.554688 2.269531 -3.492188 2.28125 -3.421875 C 2.300781 -3.347656 2.3125 -3.273438 2.3125 -3.203125 C 2.3125 -3.085938 2.289062 -2.960938 2.25 -2.828125 C 2.21875 -2.691406 2.164062 -2.5625 2.09375 -2.4375 C 2.019531 -2.320312 1.929688 -2.222656 1.828125 -2.140625 C 1.722656 -2.066406 1.601562 -2.03125 1.46875 -2.03125 C 1.382812 -2.03125 1.34375 -2.0625 1.34375 -2.125 C 1.34375 -2.164062 1.351562 -2.222656 1.375 -2.296875 C 1.40625 -2.378906 1.421875 -2.488281 1.421875 -2.625 C 1.421875 -2.664062 1.414062 -2.707031 1.40625 -2.75 C 1.40625 -2.800781 1.394531 -2.847656 1.375 -2.890625 C 1.363281 -2.929688 1.34375 -2.96875 1.3125 -3 C 1.289062 -3.03125 1.253906 -3.046875 1.203125 -3.046875 C 1.109375 -3.046875 1.019531 -3 0.9375 -2.90625 C 0.863281 -2.820312 0.796875 -2.710938 0.734375 -2.578125 C 0.679688 -2.453125 0.640625 -2.3125 0.609375 -2.15625 C 0.578125 -2 0.5625 -1.851562 0.5625 -1.71875 C 0.5625 -1.570312 0.570312 -1.445312 0.59375 -1.34375 C 0.625 -1.25 0.660156 -1.171875 0.703125 -1.109375 C 0.753906 -1.054688 0.8125 -1.019531 0.875 -1 C 0.9375 -0.976562 1 -0.96875 1.0625 -0.96875 C 1.21875 -0.96875 1.351562 -1.007812 1.46875 -1.09375 C 1.582031 -1.175781 1.679688 -1.269531 1.765625 -1.375 C 1.859375 -1.476562 1.929688 -1.570312 1.984375 -1.65625 C 2.035156 -1.738281 2.078125 -1.78125 2.109375 -1.78125 C 2.148438 -1.78125 2.171875 -1.742188 2.171875 -1.671875 C 2.179688 -1.609375 2.1875 -1.53125 2.1875 -1.4375 C 2.1875 -1.363281 2.179688 -1.253906 2.171875 -1.109375 C 2.160156 -0.972656 2.148438 -0.816406 2.140625 -0.640625 C 2.140625 -0.460938 2.128906 -0.273438 2.109375 -0.078125 C 2.097656 0.117188 2.085938 0.304688 2.078125 0.484375 C 2.066406 0.660156 2.054688 0.816406 2.046875 0.953125 C 2.035156 1.097656 2.03125 1.210938 2.03125 1.296875 C 2.007812 1.640625 1.988281 1.929688 1.96875 2.171875 C 1.945312 2.410156 1.925781 2.613281 1.90625 2.78125 C 1.882812 2.945312 1.863281 3.082031 1.84375 3.1875 C 1.832031 3.289062 1.816406 3.378906 1.796875 3.453125 C 1.785156 3.503906 1.757812 3.546875 1.71875 3.578125 C 1.675781 3.617188 1.628906 3.644531 1.578125 3.65625 C 1.535156 3.675781 1.488281 3.691406 1.4375 3.703125 C 1.394531 3.722656 1.363281 3.738281 1.34375 3.75 C 1.238281 3.832031 1.15625 3.894531 1.09375 3.9375 C 1.039062 3.988281 0.988281 4.015625 0.9375 4.015625 C 0.90625 4.015625 0.878906 4 0.859375 3.96875 C 0.835938 3.945312 0.828125 3.910156 0.828125 3.859375 C 0.828125 3.835938 0.828125 3.800781 0.828125 3.75 C 0.835938 3.707031 0.84375 3.671875 0.84375 3.640625 C 0.84375 3.628906 0.847656 3.613281 0.859375 3.59375 C 0.867188 3.570312 0.875 3.53125 0.875 3.46875 C 0.882812 3.40625 0.894531 3.320312 0.90625 3.21875 C 0.925781 3.125 0.945312 2.992188 0.96875 2.828125 C 1 2.660156 1.03125 2.453125 1.0625 2.203125 C 1.09375 1.960938 1.128906 1.671875 1.171875 1.328125 C 1.179688 1.242188 1.191406 1.125 1.203125 0.96875 C 1.222656 0.820312 1.242188 0.660156 1.265625 0.484375 C 1.285156 0.304688 1.300781 0.125 1.3125 -0.0625 C 1.332031 -0.257812 1.347656 -0.441406 1.359375 -0.609375 C 1.359375 -0.628906 1.351562 -0.640625 1.34375 -0.640625 C 1.332031 -0.640625 1.316406 -0.625 1.296875 -0.59375 C 1.285156 -0.5625 1.265625 -0.519531 1.234375 -0.46875 C 1.203125 -0.425781 1.160156 -0.375 1.109375 -0.3125 C 1.066406 -0.257812 1.015625 -0.203125 0.953125 -0.140625 C 0.878906 -0.078125 0.800781 -0.0234375 0.71875 0.015625 C 0.632812 0.0546875 0.546875 0.078125 0.453125 0.078125 C 0.359375 0.078125 0.269531 0.0507812 0.1875 0 C 0.101562 -0.0625 0.03125 -0.140625 -0.03125 -0.234375 C -0.09375 -0.335938 -0.140625 -0.457031 -0.171875 -0.59375 C -0.210938 -0.726562 -0.234375 -0.875 -0.234375 -1.03125 C -0.234375 -1.375 -0.179688 -1.691406 -0.078125 -1.984375 C 0.0234375 -2.285156 0.203125 -2.585938 0.453125 -2.890625 C 0.566406 -3.035156 0.6875 -3.164062 0.8125 -3.28125 C 0.945312 -3.394531 1.078125 -3.488281 1.203125 -3.5625 C 1.328125 -3.644531 1.445312 -3.703125 1.5625 -3.734375 C 1.675781 -3.773438 1.773438 -3.796875 1.859375 -3.796875 Z M 1.859375 -3.796875 "/></g></g><g transform="translate(188.414054, 189.749988)"><g><path d="M 2.875 -2.21875 C 2.894531 -2.21875 2.914062 -2.207031 2.9375 -2.1875 C 2.957031 -2.175781 2.96875 -2.15625 2.96875 -2.125 C 2.96875 -2.09375 2.960938 -2.066406 2.953125 -2.046875 C 2.890625 -1.878906 2.820312 -1.722656 2.75 -1.578125 C 2.6875 -1.429688 2.625 -1.300781 2.5625 -1.1875 C 2.5 -1.0625 2.429688 -0.941406 2.359375 -0.828125 C 2.273438 -0.703125 2.179688 -0.578125 2.078125 -0.453125 C 1.984375 -0.335938 1.878906 -0.238281 1.765625 -0.15625 C 1.648438 -0.0703125 1.519531 -0.00390625 1.375 0.046875 C 1.238281 0.0976562 1.097656 0.125 0.953125 0.125 C 0.835938 0.125 0.710938 0.101562 0.578125 0.0625 C 0.441406 0.03125 0.316406 -0.0351562 0.203125 -0.140625 C 0.0859375 -0.253906 -0.00390625 -0.398438 -0.078125 -0.578125 C -0.160156 -0.765625 -0.203125 -1.003906 -0.203125 -1.296875 C -0.203125 -1.421875 -0.1875 -1.550781 -0.15625 -1.6875 C -0.132812 -1.832031 -0.0976562 -1.96875 -0.046875 -2.09375 C -0.00390625 -2.21875 0.0390625 -2.332031 0.09375 -2.4375 C 0.15625 -2.550781 0.210938 -2.644531 0.265625 -2.71875 C 0.367188 -2.863281 0.476562 -3 0.59375 -3.125 C 0.707031 -3.25 0.820312 -3.351562 0.9375 -3.4375 C 1.050781 -3.53125 1.160156 -3.601562 1.265625 -3.65625 C 1.378906 -3.707031 1.484375 -3.734375 1.578125 -3.734375 C 1.722656 -3.734375 1.851562 -3.675781 1.96875 -3.5625 C 2.082031 -3.445312 2.140625 -3.285156 2.140625 -3.078125 C 2.140625 -2.890625 2.09375 -2.695312 2 -2.5 C 1.90625 -2.300781 1.785156 -2.109375 1.640625 -1.921875 C 1.503906 -1.734375 1.351562 -1.5625 1.1875 -1.40625 C 1.03125 -1.25 0.882812 -1.117188 0.75 -1.015625 C 0.820312 -0.835938 0.910156 -0.707031 1.015625 -0.625 C 1.128906 -0.539062 1.242188 -0.5 1.359375 -0.5 C 1.535156 -0.5 1.691406 -0.554688 1.828125 -0.671875 C 1.960938 -0.785156 2.085938 -0.921875 2.203125 -1.078125 C 2.316406 -1.242188 2.414062 -1.414062 2.5 -1.59375 C 2.582031 -1.78125 2.65625 -1.941406 2.71875 -2.078125 C 2.738281 -2.117188 2.757812 -2.148438 2.78125 -2.171875 C 2.8125 -2.203125 2.84375 -2.21875 2.875 -2.21875 Z M 0.59375 -1.9375 C 0.59375 -1.707031 0.613281 -1.503906 0.65625 -1.328125 C 0.726562 -1.410156 0.804688 -1.5 0.890625 -1.59375 C 0.972656 -1.695312 1.046875 -1.800781 1.109375 -1.90625 C 1.171875 -2.007812 1.222656 -2.113281 1.265625 -2.21875 C 1.304688 -2.332031 1.328125 -2.441406 1.328125 -2.546875 C 1.328125 -2.703125 1.289062 -2.820312 1.21875 -2.90625 C 1.15625 -2.988281 1.09375 -3.03125 1.03125 -3.03125 C 0.988281 -3.03125 0.941406 -3.003906 0.890625 -2.953125 C 0.847656 -2.910156 0.800781 -2.84375 0.75 -2.75 C 0.707031 -2.65625 0.671875 -2.539062 0.640625 -2.40625 C 0.609375 -2.269531 0.59375 -2.113281 0.59375 -1.9375 Z M 0.59375 -1.9375 "/></g></g><g transform="translate(191.17382, 189.749988)"><g><path d="M 5.5625 -2.21875 C 5.625 -2.21875 5.65625 -2.1875 5.65625 -2.125 C 5.65625 -2.101562 5.644531 -2.078125 5.625 -2.046875 C 5.539062 -1.773438 5.457031 -1.53125 5.375 -1.3125 C 5.289062 -1.09375 5.210938 -0.898438 5.140625 -0.734375 C 5.085938 -0.628906 5.035156 -0.523438 4.984375 -0.421875 C 4.929688 -0.328125 4.867188 -0.238281 4.796875 -0.15625 C 4.722656 -0.0820312 4.640625 -0.0234375 4.546875 0.015625 C 4.460938 0.0664062 4.363281 0.09375 4.25 0.09375 C 4.164062 0.09375 4.085938 0.0820312 4.015625 0.0625 C 3.941406 0.0390625 3.875 0.00390625 3.8125 -0.046875 C 3.75 -0.109375 3.695312 -0.1875 3.65625 -0.28125 C 3.613281 -0.375 3.582031 -0.492188 3.5625 -0.640625 C 3.5625 -0.722656 3.554688 -0.8125 3.546875 -0.90625 C 3.546875 -1 3.546875 -1.09375 3.546875 -1.1875 C 3.546875 -1.394531 3.550781 -1.59375 3.5625 -1.78125 C 3.570312 -1.976562 3.578125 -2.125 3.578125 -2.21875 C 3.578125 -2.300781 3.5625 -2.359375 3.53125 -2.390625 C 3.507812 -2.421875 3.484375 -2.4375 3.453125 -2.4375 C 3.410156 -2.4375 3.378906 -2.421875 3.359375 -2.390625 C 3.335938 -2.359375 3.320312 -2.320312 3.3125 -2.28125 C 3.289062 -2.226562 3.257812 -2.144531 3.21875 -2.03125 C 3.175781 -1.914062 3.128906 -1.785156 3.078125 -1.640625 C 3.035156 -1.503906 2.984375 -1.351562 2.921875 -1.1875 C 2.867188 -1.03125 2.820312 -0.882812 2.78125 -0.75 C 2.71875 -0.582031 2.660156 -0.445312 2.609375 -0.34375 C 2.554688 -0.238281 2.503906 -0.15625 2.453125 -0.09375 C 2.410156 -0.0390625 2.363281 -0.00390625 2.3125 0.015625 C 2.269531 0.0351562 2.222656 0.046875 2.171875 0.046875 C 2.128906 0.046875 2.085938 0.0351562 2.046875 0.015625 C 2.003906 0.00390625 1.960938 -0.015625 1.921875 -0.046875 C 1.890625 -0.0859375 1.859375 -0.132812 1.828125 -0.1875 C 1.804688 -0.25 1.796875 -0.328125 1.796875 -0.421875 C 1.785156 -0.484375 1.78125 -0.546875 1.78125 -0.609375 C 1.78125 -0.671875 1.78125 -0.738281 1.78125 -0.8125 C 1.78125 -0.957031 1.78125 -1.097656 1.78125 -1.234375 C 1.789062 -1.378906 1.796875 -1.515625 1.796875 -1.640625 C 1.804688 -1.765625 1.8125 -1.878906 1.8125 -1.984375 C 1.820312 -2.085938 1.828125 -2.164062 1.828125 -2.21875 C 1.828125 -2.300781 1.8125 -2.359375 1.78125 -2.390625 C 1.757812 -2.421875 1.734375 -2.4375 1.703125 -2.4375 C 1.671875 -2.4375 1.640625 -2.421875 1.609375 -2.390625 C 1.585938 -2.359375 1.566406 -2.320312 1.546875 -2.28125 C 1.535156 -2.238281 1.507812 -2.15625 1.46875 -2.03125 C 1.425781 -1.914062 1.378906 -1.78125 1.328125 -1.625 C 1.285156 -1.476562 1.234375 -1.320312 1.171875 -1.15625 C 1.117188 -1 1.070312 -0.851562 1.03125 -0.71875 C 0.96875 -0.539062 0.910156 -0.398438 0.859375 -0.296875 C 0.804688 -0.191406 0.753906 -0.109375 0.703125 -0.046875 C 0.648438 0.00390625 0.597656 0.0390625 0.546875 0.0625 C 0.503906 0.0820312 0.460938 0.09375 0.421875 0.09375 C 0.378906 0.09375 0.335938 0.0820312 0.296875 0.0625 C 0.253906 0.0507812 0.210938 0.0234375 0.171875 -0.015625 C 0.140625 -0.0546875 0.109375 -0.101562 0.078125 -0.15625 C 0.0546875 -0.21875 0.046875 -0.296875 0.046875 -0.390625 C 0.0351562 -0.503906 0.03125 -0.609375 0.03125 -0.703125 C 0.03125 -0.804688 0.03125 -0.90625 0.03125 -1 C 0.03125 -1.132812 0.03125 -1.273438 0.03125 -1.421875 C 0.0390625 -1.566406 0.046875 -1.742188 0.046875 -1.953125 C 0.0546875 -2.117188 0.0703125 -2.28125 0.09375 -2.4375 C 0.113281 -2.59375 0.132812 -2.726562 0.15625 -2.84375 C 0.1875 -2.96875 0.210938 -3.066406 0.234375 -3.140625 C 0.265625 -3.222656 0.289062 -3.273438 0.3125 -3.296875 C 0.332031 -3.328125 0.359375 -3.359375 0.390625 -3.390625 C 0.429688 -3.429688 0.46875 -3.453125 0.5 -3.453125 C 0.53125 -3.453125 0.550781 -3.441406 0.5625 -3.421875 C 0.582031 -3.398438 0.597656 -3.390625 0.609375 -3.390625 C 0.640625 -3.390625 0.671875 -3.398438 0.703125 -3.421875 C 0.734375 -3.441406 0.773438 -3.46875 0.828125 -3.5 C 0.859375 -3.519531 0.882812 -3.535156 0.90625 -3.546875 C 0.9375 -3.566406 0.96875 -3.578125 1 -3.578125 C 1.039062 -3.578125 1.0625 -3.523438 1.0625 -3.421875 C 1.0625 -3.390625 1.054688 -3.328125 1.046875 -3.234375 C 1.035156 -3.140625 1.03125 -3.046875 1.03125 -2.953125 C 1.019531 -2.785156 1.003906 -2.617188 0.984375 -2.453125 C 0.972656 -2.285156 0.960938 -2.128906 0.953125 -1.984375 C 0.941406 -1.847656 0.9375 -1.726562 0.9375 -1.625 C 0.9375 -1.53125 0.9375 -1.460938 0.9375 -1.421875 C 0.9375 -1.359375 0.9375 -1.328125 0.9375 -1.328125 C 0.945312 -1.328125 0.960938 -1.363281 0.984375 -1.4375 C 1.015625 -1.507812 1.050781 -1.609375 1.09375 -1.734375 C 1.144531 -1.859375 1.195312 -1.992188 1.25 -2.140625 C 1.3125 -2.296875 1.375 -2.445312 1.4375 -2.59375 C 1.5 -2.75 1.5625 -2.894531 1.625 -3.03125 C 1.6875 -3.164062 1.75 -3.273438 1.8125 -3.359375 C 1.894531 -3.460938 1.976562 -3.539062 2.0625 -3.59375 C 2.144531 -3.65625 2.226562 -3.6875 2.3125 -3.6875 C 2.476562 -3.6875 2.582031 -3.582031 2.625 -3.375 C 2.675781 -3.175781 2.703125 -2.875 2.703125 -2.46875 C 2.703125 -2.289062 2.695312 -2.109375 2.6875 -1.921875 C 2.675781 -1.734375 2.671875 -1.546875 2.671875 -1.359375 C 2.671875 -1.335938 2.675781 -1.328125 2.6875 -1.328125 C 2.695312 -1.328125 2.710938 -1.363281 2.734375 -1.4375 C 2.765625 -1.507812 2.800781 -1.609375 2.84375 -1.734375 C 2.882812 -1.859375 2.9375 -1.992188 3 -2.140625 C 3.0625 -2.296875 3.125 -2.445312 3.1875 -2.59375 C 3.25 -2.75 3.3125 -2.894531 3.375 -3.03125 C 3.4375 -3.164062 3.5 -3.273438 3.5625 -3.359375 C 3.644531 -3.460938 3.726562 -3.539062 3.8125 -3.59375 C 3.894531 -3.65625 3.976562 -3.6875 4.0625 -3.6875 C 4.132812 -3.6875 4.195312 -3.664062 4.25 -3.625 C 4.300781 -3.582031 4.335938 -3.519531 4.359375 -3.4375 C 4.390625 -3.351562 4.410156 -3.257812 4.421875 -3.15625 C 4.441406 -3.050781 4.453125 -2.929688 4.453125 -2.796875 C 4.453125 -2.734375 4.445312 -2.648438 4.4375 -2.546875 C 4.4375 -2.441406 4.429688 -2.332031 4.421875 -2.21875 C 4.421875 -2.101562 4.414062 -1.984375 4.40625 -1.859375 C 4.40625 -1.742188 4.40625 -1.640625 4.40625 -1.546875 C 4.40625 -1.390625 4.410156 -1.265625 4.421875 -1.171875 C 4.441406 -1.078125 4.460938 -1 4.484375 -0.9375 C 4.503906 -0.882812 4.53125 -0.847656 4.5625 -0.828125 C 4.59375 -0.804688 4.628906 -0.796875 4.671875 -0.796875 C 4.742188 -0.796875 4.804688 -0.828125 4.859375 -0.890625 C 4.921875 -0.960938 4.976562 -1.054688 5.03125 -1.171875 C 5.082031 -1.285156 5.140625 -1.414062 5.203125 -1.5625 C 5.265625 -1.71875 5.332031 -1.890625 5.40625 -2.078125 C 5.4375 -2.171875 5.488281 -2.21875 5.5625 -2.21875 Z M 5.5625 -2.21875 "/></g></g><g transform="translate(196.617179, 189.749988)"><g><path d="M 2.875 -2.21875 C 2.894531 -2.21875 2.914062 -2.207031 2.9375 -2.1875 C 2.957031 -2.175781 2.96875 -2.15625 2.96875 -2.125 C 2.96875 -2.09375 2.960938 -2.066406 2.953125 -2.046875 C 2.890625 -1.878906 2.820312 -1.722656 2.75 -1.578125 C 2.6875 -1.429688 2.625 -1.300781 2.5625 -1.1875 C 2.5 -1.0625 2.429688 -0.941406 2.359375 -0.828125 C 2.273438 -0.703125 2.179688 -0.578125 2.078125 -0.453125 C 1.984375 -0.335938 1.878906 -0.238281 1.765625 -0.15625 C 1.648438 -0.0703125 1.519531 -0.00390625 1.375 0.046875 C 1.238281 0.0976562 1.097656 0.125 0.953125 0.125 C 0.835938 0.125 0.710938 0.101562 0.578125 0.0625 C 0.441406 0.03125 0.316406 -0.0351562 0.203125 -0.140625 C 0.0859375 -0.253906 -0.00390625 -0.398438 -0.078125 -0.578125 C -0.160156 -0.765625 -0.203125 -1.003906 -0.203125 -1.296875 C -0.203125 -1.421875 -0.1875 -1.550781 -0.15625 -1.6875 C -0.132812 -1.832031 -0.0976562 -1.96875 -0.046875 -2.09375 C -0.00390625 -2.21875 0.0390625 -2.332031 0.09375 -2.4375 C 0.15625 -2.550781 0.210938 -2.644531 0.265625 -2.71875 C 0.367188 -2.863281 0.476562 -3 0.59375 -3.125 C 0.707031 -3.25 0.820312 -3.351562 0.9375 -3.4375 C 1.050781 -3.53125 1.160156 -3.601562 1.265625 -3.65625 C 1.378906 -3.707031 1.484375 -3.734375 1.578125 -3.734375 C 1.722656 -3.734375 1.851562 -3.675781 1.96875 -3.5625 C 2.082031 -3.445312 2.140625 -3.285156 2.140625 -3.078125 C 2.140625 -2.890625 2.09375 -2.695312 2 -2.5 C 1.90625 -2.300781 1.785156 -2.109375 1.640625 -1.921875 C 1.503906 -1.734375 1.351562 -1.5625 1.1875 -1.40625 C 1.03125 -1.25 0.882812 -1.117188 0.75 -1.015625 C 0.820312 -0.835938 0.910156 -0.707031 1.015625 -0.625 C 1.128906 -0.539062 1.242188 -0.5 1.359375 -0.5 C 1.535156 -0.5 1.691406 -0.554688 1.828125 -0.671875 C 1.960938 -0.785156 2.085938 -0.921875 2.203125 -1.078125 C 2.316406 -1.242188 2.414062 -1.414062 2.5 -1.59375 C 2.582031 -1.78125 2.65625 -1.941406 2.71875 -2.078125 C 2.738281 -2.117188 2.757812 -2.148438 2.78125 -2.171875 C 2.8125 -2.203125 2.84375 -2.21875 2.875 -2.21875 Z M 0.59375 -1.9375 C 0.59375 -1.707031 0.613281 -1.503906 0.65625 -1.328125 C 0.726562 -1.410156 0.804688 -1.5 0.890625 -1.59375 C 0.972656 -1.695312 1.046875 -1.800781 1.109375 -1.90625 C 1.171875 -2.007812 1.222656 -2.113281 1.265625 -2.21875 C 1.304688 -2.332031 1.328125 -2.441406 1.328125 -2.546875 C 1.328125 -2.703125 1.289062 -2.820312 1.21875 -2.90625 C 1.15625 -2.988281 1.09375 -3.03125 1.03125 -3.03125 C 0.988281 -3.03125 0.941406 -3.003906 0.890625 -2.953125 C 0.847656 -2.910156 0.800781 -2.84375 0.75 -2.75 C 0.707031 -2.65625 0.671875 -2.539062 0.640625 -2.40625 C 0.609375 -2.269531 0.59375 -2.113281 0.59375 -1.9375 Z M 0.59375 -1.9375 "/></g></g><g transform="translate(199.376944, 189.749988)"><g><path d="M 4.3125 -2.21875 C 4.332031 -2.21875 4.351562 -2.207031 4.375 -2.1875 C 4.394531 -2.175781 4.40625 -2.15625 4.40625 -2.125 C 4.40625 -2.09375 4.398438 -2.0625 4.390625 -2.03125 C 4.265625 -1.6875 4.148438 -1.378906 4.046875 -1.109375 C 3.941406 -0.847656 3.835938 -0.628906 3.734375 -0.453125 C 3.640625 -0.273438 3.535156 -0.140625 3.421875 -0.046875 C 3.316406 0.0351562 3.195312 0.078125 3.0625 0.078125 C 2.894531 0.078125 2.757812 0.0390625 2.65625 -0.03125 C 2.5625 -0.113281 2.484375 -0.210938 2.421875 -0.328125 C 2.359375 -0.453125 2.316406 -0.585938 2.296875 -0.734375 C 2.285156 -0.890625 2.28125 -1.039062 2.28125 -1.1875 C 2.28125 -1.289062 2.28125 -1.394531 2.28125 -1.5 C 2.28125 -1.601562 2.28125 -1.703125 2.28125 -1.796875 C 2.289062 -1.890625 2.296875 -1.972656 2.296875 -2.046875 C 2.304688 -2.117188 2.3125 -2.179688 2.3125 -2.234375 C 2.3125 -2.304688 2.296875 -2.359375 2.265625 -2.390625 C 2.242188 -2.421875 2.21875 -2.4375 2.1875 -2.4375 C 2.15625 -2.4375 2.125 -2.421875 2.09375 -2.390625 C 2.070312 -2.359375 2.054688 -2.320312 2.046875 -2.28125 C 2.023438 -2.226562 1.992188 -2.140625 1.953125 -2.015625 C 1.921875 -1.898438 1.878906 -1.765625 1.828125 -1.609375 C 1.773438 -1.460938 1.71875 -1.304688 1.65625 -1.140625 C 1.601562 -0.972656 1.550781 -0.820312 1.5 -0.6875 C 1.4375 -0.519531 1.378906 -0.378906 1.328125 -0.265625 C 1.273438 -0.160156 1.222656 -0.078125 1.171875 -0.015625 C 1.117188 0.0351562 1.066406 0.0703125 1.015625 0.09375 C 0.960938 0.113281 0.914062 0.125 0.875 0.125 C 0.84375 0.125 0.804688 0.113281 0.765625 0.09375 C 0.722656 0.0820312 0.679688 0.0546875 0.640625 0.015625 C 0.609375 -0.015625 0.582031 -0.0546875 0.5625 -0.109375 C 0.539062 -0.171875 0.53125 -0.25 0.53125 -0.34375 C 0.519531 -0.539062 0.515625 -0.753906 0.515625 -0.984375 C 0.515625 -1.222656 0.515625 -1.453125 0.515625 -1.671875 C 0.515625 -1.773438 0.515625 -1.875 0.515625 -1.96875 C 0.515625 -2.070312 0.515625 -2.164062 0.515625 -2.25 C 0.515625 -2.363281 0.507812 -2.441406 0.5 -2.484375 C 0.488281 -2.535156 0.472656 -2.5625 0.453125 -2.5625 C 0.410156 -2.5625 0.375 -2.519531 0.34375 -2.4375 C 0.3125 -2.351562 0.257812 -2.222656 0.1875 -2.046875 C 0.164062 -1.992188 0.140625 -1.953125 0.109375 -1.921875 C 0.0859375 -1.898438 0.0664062 -1.890625 0.046875 -1.890625 C 0.015625 -1.890625 -0.00390625 -1.898438 -0.015625 -1.921875 C -0.0351562 -1.941406 -0.046875 -1.972656 -0.046875 -2.015625 C -0.046875 -2.035156 -0.0351562 -2.078125 -0.015625 -2.140625 C 0.00390625 -2.203125 0.0234375 -2.265625 0.046875 -2.328125 C 0.078125 -2.398438 0.109375 -2.472656 0.140625 -2.546875 C 0.171875 -2.628906 0.195312 -2.695312 0.21875 -2.75 C 0.257812 -2.84375 0.300781 -2.9375 0.34375 -3.03125 C 0.394531 -3.125 0.453125 -3.210938 0.515625 -3.296875 C 0.578125 -3.378906 0.644531 -3.445312 0.71875 -3.5 C 0.789062 -3.550781 0.867188 -3.578125 0.953125 -3.578125 C 1.066406 -3.578125 1.164062 -3.515625 1.25 -3.390625 C 1.34375 -3.265625 1.390625 -3.070312 1.390625 -2.8125 C 1.398438 -2.613281 1.40625 -2.421875 1.40625 -2.234375 C 1.40625 -2.054688 1.40625 -1.898438 1.40625 -1.765625 C 1.414062 -1.628906 1.421875 -1.519531 1.421875 -1.4375 C 1.421875 -1.363281 1.425781 -1.328125 1.4375 -1.328125 C 1.4375 -1.328125 1.453125 -1.359375 1.484375 -1.421875 C 1.515625 -1.492188 1.550781 -1.585938 1.59375 -1.703125 C 1.632812 -1.816406 1.679688 -1.945312 1.734375 -2.09375 C 1.785156 -2.25 1.84375 -2.398438 1.90625 -2.546875 C 1.96875 -2.691406 2.03125 -2.832031 2.09375 -2.96875 C 2.164062 -3.113281 2.234375 -3.238281 2.296875 -3.34375 C 2.367188 -3.457031 2.441406 -3.539062 2.515625 -3.59375 C 2.597656 -3.65625 2.691406 -3.6875 2.796875 -3.6875 C 2.929688 -3.6875 3.03125 -3.601562 3.09375 -3.4375 C 3.15625 -3.269531 3.1875 -3.046875 3.1875 -2.765625 C 3.1875 -2.703125 3.1875 -2.617188 3.1875 -2.515625 C 3.1875 -2.410156 3.179688 -2.300781 3.171875 -2.1875 C 3.171875 -2.070312 3.164062 -1.957031 3.15625 -1.84375 C 3.15625 -1.738281 3.15625 -1.640625 3.15625 -1.546875 C 3.15625 -1.378906 3.160156 -1.242188 3.171875 -1.140625 C 3.179688 -1.046875 3.195312 -0.972656 3.21875 -0.921875 C 3.25 -0.867188 3.273438 -0.832031 3.296875 -0.8125 C 3.328125 -0.789062 3.359375 -0.78125 3.390625 -0.78125 C 3.460938 -0.78125 3.53125 -0.8125 3.59375 -0.875 C 3.664062 -0.945312 3.726562 -1.046875 3.78125 -1.171875 C 3.84375 -1.296875 3.898438 -1.429688 3.953125 -1.578125 C 4.015625 -1.734375 4.082031 -1.898438 4.15625 -2.078125 C 4.1875 -2.171875 4.238281 -2.21875 4.3125 -2.21875 Z M 4.3125 -2.21875 "/></g></g><g transform="translate(203.578116, 189.749988)"><g><path d="M 2.34375 -2.046875 C 2.21875 -1.679688 2.101562 -1.363281 2 -1.09375 C 1.90625 -0.832031 1.804688 -0.613281 1.703125 -0.4375 C 1.597656 -0.257812 1.488281 -0.125 1.375 -0.03125 C 1.257812 0.0507812 1.117188 0.09375 0.953125 0.09375 C 0.859375 0.09375 0.757812 0.0664062 0.65625 0.015625 C 0.550781 -0.0351562 0.453125 -0.132812 0.359375 -0.28125 C 0.265625 -0.4375 0.1875 -0.644531 0.125 -0.90625 C 0.0703125 -1.175781 0.046875 -1.523438 0.046875 -1.953125 C 0.046875 -2.066406 0.0507812 -2.21875 0.0625 -2.40625 C 0.0703125 -2.59375 0.0820312 -2.800781 0.09375 -3.03125 C 0.113281 -3.257812 0.128906 -3.5 0.140625 -3.75 C 0.160156 -4.007812 0.1875 -4.269531 0.21875 -4.53125 C 0.195312 -4.519531 0.175781 -4.515625 0.15625 -4.515625 C 0.144531 -4.515625 0.128906 -4.515625 0.109375 -4.515625 C -0.109375 -4.492188 -0.265625 -4.472656 -0.359375 -4.453125 C -0.453125 -4.429688 -0.507812 -4.410156 -0.53125 -4.390625 C -0.550781 -4.378906 -0.5625 -4.363281 -0.5625 -4.34375 C -0.5625 -4.320312 -0.5625 -4.300781 -0.5625 -4.28125 C -0.5625 -4.257812 -0.566406 -4.242188 -0.578125 -4.234375 C -0.585938 -4.222656 -0.609375 -4.21875 -0.640625 -4.21875 C -0.660156 -4.21875 -0.6875 -4.222656 -0.71875 -4.234375 C -0.75 -4.242188 -0.773438 -4.257812 -0.796875 -4.28125 C -0.828125 -4.300781 -0.851562 -4.328125 -0.875 -4.359375 C -0.894531 -4.390625 -0.90625 -4.429688 -0.90625 -4.484375 C -0.90625 -4.523438 -0.894531 -4.566406 -0.875 -4.609375 C -0.863281 -4.660156 -0.84375 -4.707031 -0.8125 -4.75 C -0.789062 -4.789062 -0.75 -4.84375 -0.6875 -4.90625 C -0.632812 -4.976562 -0.566406 -5.046875 -0.484375 -5.109375 C -0.398438 -5.179688 -0.289062 -5.242188 -0.15625 -5.296875 C -0.03125 -5.359375 0.117188 -5.410156 0.296875 -5.453125 C 0.316406 -5.617188 0.335938 -5.765625 0.359375 -5.890625 C 0.378906 -6.015625 0.398438 -6.125 0.421875 -6.21875 C 0.453125 -6.320312 0.476562 -6.410156 0.5 -6.484375 C 0.519531 -6.566406 0.539062 -6.644531 0.5625 -6.71875 C 0.613281 -6.863281 0.671875 -6.976562 0.734375 -7.0625 C 0.804688 -7.144531 0.890625 -7.226562 0.984375 -7.3125 C 1.078125 -7.414062 1.15625 -7.484375 1.21875 -7.515625 C 1.289062 -7.546875 1.347656 -7.566406 1.390625 -7.578125 C 1.421875 -7.578125 1.453125 -7.5625 1.484375 -7.53125 C 1.515625 -7.507812 1.53125 -7.472656 1.53125 -7.421875 C 1.53125 -7.390625 1.523438 -7.363281 1.515625 -7.34375 C 1.515625 -7.320312 1.507812 -7.304688 1.5 -7.296875 C 1.488281 -7.242188 1.46875 -7.160156 1.4375 -7.046875 C 1.414062 -6.941406 1.390625 -6.8125 1.359375 -6.65625 C 1.328125 -6.5 1.289062 -6.320312 1.25 -6.125 C 1.21875 -5.925781 1.191406 -5.71875 1.171875 -5.5 C 1.378906 -5.476562 1.550781 -5.445312 1.6875 -5.40625 C 1.832031 -5.375 1.921875 -5.351562 1.953125 -5.34375 C 2.023438 -5.320312 2.070312 -5.300781 2.09375 -5.28125 C 2.113281 -5.257812 2.132812 -5.226562 2.15625 -5.1875 C 2.175781 -5.15625 2.195312 -5.128906 2.21875 -5.109375 C 2.238281 -5.085938 2.257812 -5.066406 2.28125 -5.046875 C 2.300781 -5.035156 2.316406 -5.019531 2.328125 -5 C 2.347656 -4.976562 2.359375 -4.953125 2.359375 -4.921875 C 2.359375 -4.890625 2.347656 -4.859375 2.328125 -4.828125 C 2.316406 -4.796875 2.300781 -4.78125 2.28125 -4.78125 C 2.25 -4.757812 2.195312 -4.742188 2.125 -4.734375 C 2.050781 -4.722656 1.960938 -4.707031 1.859375 -4.6875 C 1.753906 -4.675781 1.632812 -4.660156 1.5 -4.640625 C 1.363281 -4.628906 1.222656 -4.617188 1.078125 -4.609375 C 1.035156 -4.117188 0.988281 -3.648438 0.9375 -3.203125 C 0.894531 -2.753906 0.875 -2.351562 0.875 -2 C 0.875 -1.820312 0.882812 -1.660156 0.90625 -1.515625 C 0.925781 -1.367188 0.957031 -1.238281 1 -1.125 C 1.039062 -1.019531 1.09375 -0.9375 1.15625 -0.875 C 1.21875 -0.820312 1.285156 -0.796875 1.359375 -0.796875 C 1.429688 -0.796875 1.492188 -0.828125 1.546875 -0.890625 C 1.609375 -0.953125 1.671875 -1.039062 1.734375 -1.15625 C 1.796875 -1.269531 1.851562 -1.40625 1.90625 -1.5625 C 1.96875 -1.71875 2.035156 -1.890625 2.109375 -2.078125 C 2.140625 -2.171875 2.191406 -2.21875 2.265625 -2.21875 C 2.328125 -2.21875 2.359375 -2.179688 2.359375 -2.109375 C 2.359375 -2.097656 2.351562 -2.082031 2.34375 -2.0625 C 2.34375 -2.050781 2.34375 -2.046875 2.34375 -2.046875 Z M 2.34375 -2.046875 "/></g></g></g><path fill="#ddb81c" d="M 375 187.5 C 375 190.570312 374.925781 193.636719 374.773438 196.699219 C 374.625 199.765625 374.398438 202.824219 374.097656 205.878906 C 373.796875 208.933594 373.421875 211.976562 372.96875 215.011719 C 372.519531 218.046875 371.996094 221.070312 371.398438 224.078125 C 370.796875 227.089844 370.125 230.082031 369.378906 233.058594 C 368.636719 236.035156 367.816406 238.992188 366.925781 241.929688 C 366.035156 244.863281 365.074219 247.777344 364.039062 250.667969 C 363.003906 253.554688 361.902344 256.417969 360.726562 259.253906 C 359.554688 262.089844 358.308594 264.890625 356.996094 267.667969 C 355.6875 270.441406 354.304688 273.179688 352.859375 275.886719 C 351.414062 278.59375 349.902344 281.261719 348.324219 283.894531 C 346.746094 286.527344 345.105469 289.117188 343.402344 291.667969 C 341.695312 294.222656 339.929688 296.730469 338.101562 299.195312 C 336.273438 301.660156 334.386719 304.078125 332.4375 306.449219 C 330.492188 308.820312 328.488281 311.144531 326.429688 313.417969 C 324.367188 315.691406 322.253906 317.914062 320.082031 320.082031 C 317.914062 322.253906 315.691406 324.367188 313.417969 326.429688 C 311.144531 328.488281 308.820312 330.492188 306.449219 332.4375 C 304.078125 334.386719 301.660156 336.273438 299.195312 338.101562 C 296.730469 339.929688 294.222656 341.695312 291.667969 343.402344 C 289.117188 345.105469 286.527344 346.746094 283.894531 348.324219 C 281.261719 349.902344 278.59375 351.414062 275.886719 352.859375 C 273.179688 354.308594 270.441406 355.6875 267.667969 356.996094 C 264.890625 358.308594 262.089844 359.554688 259.253906 360.726562 C 256.417969 361.902344 253.554688 363.003906 250.667969 364.039062 C 247.777344 365.074219 244.863281 366.035156 241.929688 366.925781 C 238.992188 367.816406 236.035156 368.636719 233.058594 369.378906 C 230.082031 370.125 227.089844 370.796875 224.078125 371.398438 C 221.070312 371.996094 218.046875 372.519531 215.011719 372.96875 C 211.976562 373.421875 208.933594 373.796875 205.878906 374.097656 C 202.824219 374.398438 199.765625 374.625 196.699219 374.773438 C 193.636719 374.925781 190.570312 375 187.5 375 C 184.429688 375 181.363281 374.925781 178.300781 374.773438 C 175.234375 374.625 172.175781 374.398438 169.121094 374.097656 C 166.066406 373.796875 163.023438 373.421875 159.988281 372.96875 C 156.953125 372.519531 153.929688 371.996094 150.921875 371.398438 C 147.910156 370.796875 144.917969 370.125 141.941406 369.378906 C 138.964844 368.636719 136.007812 367.816406 133.070312 366.925781 C 130.136719 366.035156 127.222656 365.074219 124.332031 364.039062 C 121.445312 363.003906 118.582031 361.902344 115.746094 360.726562 C 112.910156 359.554688 110.105469 358.308594 107.332031 356.996094 C 104.558594 355.6875 101.820312 354.308594 99.113281 352.859375 C 96.40625 351.414062 93.738281 349.902344 91.105469 348.324219 C 88.472656 346.746094 85.882812 345.105469 83.332031 343.402344 C 80.777344 341.695312 78.269531 339.929688 75.804688 338.101562 C 73.339844 336.273438 70.921875 334.386719 68.550781 332.4375 C 66.179688 330.492188 63.855469 328.488281 61.582031 326.429688 C 59.308594 324.367188 57.085938 322.253906 54.917969 320.082031 C 52.746094 317.914062 50.632812 315.691406 48.570312 313.417969 C 46.511719 311.144531 44.507812 308.820312 42.558594 306.449219 C 40.613281 304.078125 38.726562 301.660156 36.898438 299.195312 C 35.070312 296.730469 33.304688 294.222656 31.597656 291.667969 C 29.894531 289.117188 28.253906 286.527344 26.675781 283.894531 C 25.097656 281.261719 23.585938 278.59375 22.140625 275.886719 C 20.691406 273.179688 19.3125 270.441406 18.003906 267.667969 C 16.691406 264.890625 15.445312 262.089844 14.273438 259.253906 C 13.097656 256.417969 11.996094 253.554688 10.960938 250.667969 C 9.925781 247.777344 8.964844 244.863281 8.074219 241.929688 C 7.183594 238.992188 6.363281 236.035156 5.617188 233.058594 C 4.875 230.082031 4.203125 227.089844 3.601562 224.078125 C 3.003906 221.070312 2.480469 218.046875 2.03125 215.011719 C 1.578125 211.976562 1.203125 208.933594 0.902344 205.878906 C 0.601562 202.824219 0.375 199.765625 0.226562 196.699219 C 0.0742188 193.636719 0 190.570312 0 187.5 C 0 184.429688 0.0742188 181.363281 0.226562 178.300781 C 0.375 175.234375 0.601562 172.175781 0.902344 169.121094 C 1.203125 166.066406 1.578125 163.023438 2.03125 159.988281 C 2.480469 156.953125 3.003906 153.929688 3.601562 150.921875 C 4.203125 147.910156 4.875 144.917969 5.617188 141.941406 C 6.363281 138.964844 7.183594 136.007812 8.074219 133.070312 C 8.964844 130.136719 9.925781 127.222656 10.960938 124.332031 C 11.996094 121.445312 13.097656 118.582031 14.273438 115.746094 C 15.445312 112.910156 16.691406 110.105469 18.003906 107.332031 C 19.3125 104.558594 20.691406 101.820312 22.140625 99.113281 C 23.585938 96.40625 25.097656 93.738281 26.675781 91.105469 C 28.253906 88.472656 29.894531 85.882812 31.597656 83.332031 C 33.304688 80.777344 35.070312 78.269531 36.898438 75.804688 C 38.726562 73.339844 40.613281 70.921875 42.558594 68.550781 C 44.507812 66.179688 46.511719 63.855469 48.570312 61.582031 C 50.632812 59.308594 52.746094 57.085938 54.917969 54.917969 C 57.085938 52.746094 59.308594 50.632812 61.582031 48.570312 C 63.855469 46.511719 66.179688 44.507812 68.550781 42.558594 C 70.921875 40.613281 73.339844 38.726562 75.804688 36.898438 C 78.269531 35.070312 80.777344 33.304688 83.332031 31.597656 C 85.882812 29.894531 88.472656 28.253906 91.105469 26.675781 C 93.738281 25.097656 96.40625 23.585938 99.113281 22.140625 C 101.820312 20.691406 104.558594 19.3125 107.332031 18.003906 C 110.105469 16.691406 112.910156 15.445312 115.746094 14.273438 C 118.582031 13.097656 121.445312 11.996094 124.332031 10.960938 C 127.222656 9.925781 130.136719 8.964844 133.070312 8.074219 C 136.007812 7.183594 138.964844 6.363281 141.941406 5.617188 C 144.917969 4.875 147.910156 4.203125 150.921875 3.601562 C 153.929688 3.003906 156.953125 2.480469 159.988281 2.03125 C 163.023438 1.578125 166.066406 1.203125 169.121094 0.902344 C 172.175781 0.601562 175.234375 0.375 178.300781 0.226562 C 181.363281 0.0742188 184.429688 0 187.5 0 C 190.570312 0 193.636719 0.0742188 196.699219 0.226562 C 199.765625 0.375 202.824219 0.601562 205.878906 0.902344 C 208.933594 1.203125 211.976562 1.578125 215.011719 2.03125 C 218.046875 2.480469 221.070312 3.003906 224.078125 3.601562 C 227.089844 4.203125 230.082031 4.875 233.058594 5.617188 C 236.035156 6.363281 238.992188 7.183594 241.929688 8.074219 C 244.863281 8.964844 247.777344 9.925781 250.667969 10.960938 C 253.554688 11.996094 256.417969 13.097656 259.253906 14.273438 C 262.089844 15.445312 264.890625 16.691406 267.667969 18.003906 C 270.441406 19.3125 273.179688 20.691406 275.886719 22.140625 C 278.59375 23.585938 281.261719 25.097656 283.894531 26.675781 C 286.527344 28.253906 289.117188 29.894531 291.667969 31.597656 C 294.222656 33.304688 296.730469 35.070312 299.195312 36.898438 C 301.660156 38.726562 304.078125 40.613281 306.449219 42.558594 C 308.820312 44.507812 311.144531 46.511719 313.417969 48.570312 C 315.691406 50.632812 317.914062 52.746094 320.082031 54.917969 C 322.253906 57.085938 324.367188 59.308594 326.429688 61.582031 C 328.488281 63.855469 330.492188 66.179688 332.4375 68.550781 C 334.386719 70.921875 336.273438 73.339844 338.101562 75.804688 C 339.929688 78.269531 341.695312 80.777344 343.402344 83.332031 C 345.105469 85.882812 346.746094 88.472656 348.324219 91.105469 C 349.902344 93.738281 351.414062 96.40625 352.859375 99.113281 C 354.304688 101.820312 355.6875 104.558594 356.996094 107.332031 C 358.308594 110.105469 359.554688 112.910156 360.726562 115.746094 C 361.902344 118.582031 363.003906 121.445312 364.039062 124.332031 C 365.074219 127.222656 366.035156 130.136719 366.925781 133.070312 C 367.816406 136.007812 368.636719 138.964844 369.378906 141.941406 C 370.125 144.917969 370.796875 147.910156 371.398438 150.921875 C 371.996094 153.929688 372.519531 156.953125 372.96875 159.988281 C 373.421875 163.023438 373.796875 166.066406 374.097656 169.121094 C 374.398438 172.175781 374.625 175.234375 374.773438 178.300781 C 374.925781 181.363281 375 184.429688 375 187.5 Z M 375 187.5 " fill-opacity="1" fill-rule="nonzero"/><g fill="#ffffff" fill-opacity="1"><g transform="translate(58.12604, 297.667229)"><g><path d="M 307.144531 -233.085938 C 304.167969 -244.65625 292.925781 -250.609375 281.6875 -252.261719 C 269.121094 -253.914062 255.238281 -250.9375 243.335938 -244.988281 C 231.101562 -239.035156 219.859375 -230.109375 209.609375 -220.851562 C 198.371094 -210.273438 187.789062 -198.371094 178.203125 -186.796875 C 166.632812 -172.914062 155.390625 -158.367188 145.140625 -143.15625 C 129.601562 -143.820312 113.070312 -141.171875 98.191406 -135.554688 C 71.414062 -126.625 44.632812 -113.070312 21.160156 -96.210938 C -0.332031 -80.339844 -19.507812 -60.171875 -32.070312 -35.046875 C -41.65625 -15.207031 -45.957031 16.863281 -21.160156 28.433594 C -9.917969 34.054688 3.96875 31.738281 15.539062 26.78125 C 28.765625 21.820312 39.34375 12.234375 49.59375 2.644531 C 71.414062 -18.515625 87.613281 -44.632812 103.152344 -70.089844 C 117.367188 -92.902344 131.917969 -116.378906 147.785156 -138.859375 C 150.761719 -138.527344 154.398438 -137.867188 157.375 -137.207031 C 170.269531 -134.890625 183.160156 -128.609375 192.417969 -119.023438 C 179.523438 -95.546875 168.613281 -71.742188 158.695312 -47.277344 C 152.746094 -31.738281 147.125 -15.871094 142.828125 0 C 142.164062 2.644531 146.132812 3.304688 146.792969 0.992188 C 151.753906 -12.5625 156.050781 -26.449219 161.671875 -40.335938 C 166.960938 -53.558594 172.582031 -67.117188 178.203125 -80.007812 C 184.152344 -91.582031 189.445312 -103.484375 195.394531 -114.394531 C 202.007812 -105.796875 205.972656 -94.554688 205.3125 -83.644531 C 205.3125 -77.363281 203.992188 -71.414062 201.015625 -65.792969 C 199.363281 -63.476562 203.328125 -60.832031 204.984375 -63.808594 C 207.957031 -69.429688 209.941406 -74.71875 210.273438 -81.664062 C 210.601562 -87.613281 209.941406 -94.554688 207.957031 -100.839844 C 205.644531 -107.449219 202.335938 -113.402344 198.039062 -119.023438 C 204.984375 -131.917969 211.925781 -144.480469 219.859375 -157.042969 C 224.160156 -163.65625 228.457031 -170.597656 233.085938 -177.542969 C 235.070312 -180.847656 237.050781 -184.484375 239.367188 -187.460938 C 241.679688 -191.097656 243.664062 -195.0625 245.980469 -198.371094 C 246.308594 -198.371094 245.648438 -199.03125 245.316406 -198.371094 C 242.671875 -196.386719 240.6875 -193.742188 238.042969 -190.433594 C 235.730469 -187.789062 233.746094 -185.144531 232.09375 -182.5 C 227.132812 -176.550781 223.167969 -170.269531 219.199219 -163.984375 C 210.933594 -151.421875 203.660156 -139.191406 196.386719 -126.625 C 195.726562 -125.304688 194.734375 -123.980469 194.074219 -122.988281 C 191.425781 -125.964844 187.789062 -128.941406 184.816406 -131.253906 C 173.90625 -137.867188 162.332031 -141.835938 150.429688 -142.828125 C 152.414062 -145.140625 154.066406 -147.785156 155.390625 -149.769531 C 165.308594 -162.996094 174.898438 -175.886719 185.808594 -188.121094 C 195.394531 -200.023438 205.972656 -211.925781 217.546875 -222.175781 C 228.125 -231.761719 240.6875 -240.027344 253.914062 -244.988281 C 266.148438 -249.617188 281.023438 -251.601562 293.589844 -244.988281 C 298.878906 -242.671875 303.835938 -238.375 306.152344 -232.753906 C 306.480469 -232.09375 307.472656 -232.425781 307.144531 -233.085938 Z M 122.988281 -110.757812 C 107.121094 -85.960938 91.910156 -59.511719 74.390625 -35.046875 C 65.792969 -23.144531 56.535156 -11.570312 45.957031 -0.992188 C 36.367188 7.933594 25.457031 17.191406 12.894531 22.8125 C 1.652344 27.441406 -12.234375 29.425781 -22.480469 22.8125 C -33.390625 15.539062 -36.367188 3.636719 -35.375 -8.597656 C -34.382812 -20.828125 -29.09375 -32.730469 -22.8125 -42.980469 C -16.199219 -54.550781 -7.273438 -65.132812 1.984375 -74.058594 C 21.488281 -93.566406 44.964844 -108.113281 69.761719 -119.683594 C 92.242188 -129.601562 116.707031 -139.851562 141.835938 -139.191406 C 135.554688 -129.601562 129.601562 -120.675781 122.988281 -110.757812 Z M 122.988281 -110.757812 "/></g></g></g></svg>