<svg xmlns="http://www.w3.org/2000/svg" xmlns:xlink="http://www.w3.org/1999/xlink" width="500" zoomAndPan="magnify" viewBox="0 0 375 374.999991" height="500" preserveAspectRatio="xMidYMid meet" version="1.0"><defs><clipPath id="3d798947ab"><path d="M 44 0 L 337.40625 0 L 337.40625 373 L 44 373 Z M 44 0 " clip-rule="nonzero"/></clipPath></defs><path fill="#ff3131" d="M 375 187.5 C 375 190.570312 374.925781 193.636719 374.773438 196.699219 C 374.625 199.765625 374.398438 202.824219 374.097656 205.878906 C 373.796875 208.933594 373.421875 211.976562 372.96875 215.011719 C 372.519531 218.046875 371.996094 221.070312 371.398438 224.078125 C 370.796875 227.089844 370.125 230.082031 369.378906 233.058594 C 368.636719 236.035156 367.816406 238.992188 366.925781 241.929688 C 366.035156 244.863281 365.074219 247.777344 364.039062 250.667969 C 363.003906 253.554688 361.902344 256.417969 360.726562 259.253906 C 359.554688 262.089844 358.308594 264.890625 356.996094 267.667969 C 355.6875 270.441406 354.304688 273.179688 352.859375 275.886719 C 351.414062 278.59375 349.902344 281.261719 348.324219 283.894531 C 346.746094 286.527344 345.105469 289.117188 343.402344 291.667969 C 341.695312 294.222656 339.929688 296.730469 338.101562 299.195312 C 336.273438 301.660156 334.386719 304.078125 332.4375 306.449219 C 330.492188 308.820312 328.488281 311.144531 326.429688 313.417969 C 324.367188 315.691406 322.253906 317.914062 320.082031 320.082031 C 317.914062 322.253906 315.691406 324.367188 313.417969 326.429688 C 311.144531 328.488281 308.820312 330.492188 306.449219 332.4375 C 304.078125 334.386719 301.660156 336.273438 299.195312 338.101562 C 296.730469 339.929688 294.222656 341.695312 291.667969 343.402344 C 289.117188 345.105469 286.527344 346.746094 283.894531 348.324219 C 281.261719 349.902344 278.59375 351.414062 275.886719 352.859375 C 273.179688 354.308594 270.441406 355.6875 267.667969 356.996094 C 264.890625 358.308594 262.089844 359.554688 259.253906 360.726562 C 256.417969 361.902344 253.554688 363.003906 250.667969 364.039062 C 247.777344 365.074219 244.863281 366.035156 241.929688 366.925781 C 238.992188 367.816406 236.035156 368.636719 233.058594 369.378906 C 230.082031 370.125 227.089844 370.796875 224.078125 371.398438 C 221.070312 371.996094 218.046875 372.519531 215.011719 372.96875 C 211.976562 373.421875 208.933594 373.796875 205.878906 374.097656 C 202.824219 374.398438 199.765625 374.625 196.699219 374.773438 C 193.636719 374.925781 190.570312 375 187.5 375 C 184.429688 375 181.363281 374.925781 178.300781 374.773438 C 175.234375 374.625 172.175781 374.398438 169.121094 374.097656 C 166.066406 373.796875 163.023438 373.421875 159.988281 372.96875 C 156.953125 372.519531 153.929688 371.996094 150.921875 371.398438 C 147.910156 370.796875 144.917969 370.125 141.941406 369.378906 C 138.964844 368.636719 136.007812 367.816406 133.070312 366.925781 C 130.136719 366.035156 127.222656 365.074219 124.332031 364.039062 C 121.445312 363.003906 118.582031 361.902344 115.746094 360.726562 C 112.910156 359.554688 110.105469 358.308594 107.332031 356.996094 C 104.558594 355.6875 101.820312 354.308594 99.113281 352.859375 C 96.40625 351.414062 93.738281 349.902344 91.105469 348.324219 C 88.472656 346.746094 85.882812 345.105469 83.332031 343.402344 C 80.777344 341.695312 78.269531 339.929688 75.804688 338.101562 C 73.339844 336.273438 70.921875 334.386719 68.550781 332.4375 C 66.179688 330.492188 63.855469 328.488281 61.582031 326.429688 C 59.308594 324.367188 57.085938 322.253906 54.917969 320.082031 C 52.746094 317.914062 50.632812 315.691406 48.570312 313.417969 C 46.511719 311.144531 44.507812 308.820312 42.558594 306.449219 C 40.613281 304.078125 38.726562 301.660156 36.898438 299.195312 C 35.070312 296.730469 33.304688 294.222656 31.597656 291.667969 C 29.894531 289.117188 28.253906 286.527344 26.675781 283.894531 C 25.097656 281.261719 23.585938 278.59375 22.140625 275.886719 C 20.691406 273.179688 19.3125 270.441406 18.003906 267.667969 C 16.691406 264.890625 15.445312 262.089844 14.273438 259.253906 C 13.097656 256.417969 11.996094 253.554688 10.960938 250.667969 C 9.925781 247.777344 8.964844 244.863281 8.074219 241.929688 C 7.183594 238.992188 6.363281 236.035156 5.617188 233.058594 C 4.875 230.082031 4.203125 227.089844 3.601562 224.078125 C 3.003906 221.070312 2.480469 218.046875 2.03125 215.011719 C 1.578125 211.976562 1.203125 208.933594 0.902344 205.878906 C 0.601562 202.824219 0.375 199.765625 0.226562 196.699219 C 0.0742188 193.636719 0 190.570312 0 187.5 C 0 184.429688 0.0742188 181.363281 0.226562 178.300781 C 0.375 175.234375 0.601562 172.175781 0.902344 169.121094 C 1.203125 166.066406 1.578125 163.023438 2.03125 159.988281 C 2.480469 156.953125 3.003906 153.929688 3.601562 150.921875 C 4.203125 147.910156 4.875 144.917969 5.617188 141.941406 C 6.363281 138.964844 7.183594 136.007812 8.074219 133.070312 C 8.964844 130.136719 9.925781 127.222656 10.960938 124.332031 C 11.996094 121.445312 13.097656 118.582031 14.273438 115.746094 C 15.445312 112.910156 16.691406 110.105469 18.003906 107.332031 C 19.3125 104.558594 20.691406 101.820312 22.140625 99.113281 C 23.585938 96.40625 25.097656 93.738281 26.675781 91.105469 C 28.253906 88.472656 29.894531 85.882812 31.597656 83.332031 C 33.304688 80.777344 35.070312 78.269531 36.898438 75.804688 C 38.726562 73.339844 40.613281 70.921875 42.558594 68.550781 C 44.507812 66.179688 46.511719 63.855469 48.570312 61.582031 C 50.632812 59.308594 52.746094 57.085938 54.917969 54.917969 C 57.085938 52.746094 59.308594 50.632812 61.582031 48.570312 C 63.855469 46.511719 66.179688 44.507812 68.550781 42.558594 C 70.921875 40.613281 73.339844 38.726562 75.804688 36.898438 C 78.269531 35.070312 80.777344 33.304688 83.332031 31.597656 C 85.882812 29.894531 88.472656 28.253906 91.105469 26.675781 C 93.738281 25.097656 96.40625 23.585938 99.113281 22.140625 C 101.820312 20.691406 104.558594 19.3125 107.332031 18.003906 C 110.105469 16.691406 112.910156 15.445312 115.746094 14.273438 C 118.582031 13.097656 121.445312 11.996094 124.332031 10.960938 C 127.222656 9.925781 130.136719 8.964844 133.070312 8.074219 C 136.007812 7.183594 138.964844 6.363281 141.941406 5.617188 C 144.917969 4.875 147.910156 4.203125 150.921875 3.601562 C 153.929688 3.003906 156.953125 2.480469 159.988281 2.03125 C 163.023438 1.578125 166.066406 1.203125 169.121094 0.902344 C 172.175781 0.601562 175.234375 0.375 178.300781 0.226562 C 181.363281 0.0742188 184.429688 0 187.5 0 C 190.570312 0 193.636719 0.0742188 196.699219 0.226562 C 199.765625 0.375 202.824219 0.601562 205.878906 0.902344 C 208.933594 1.203125 211.976562 1.578125 215.011719 2.03125 C 218.046875 2.480469 221.070312 3.003906 224.078125 3.601562 C 227.089844 4.203125 230.082031 4.875 233.058594 5.617188 C 236.035156 6.363281 238.992188 7.183594 241.929688 8.074219 C 244.863281 8.964844 247.777344 9.925781 250.667969 10.960938 C 253.554688 11.996094 256.417969 13.097656 259.253906 14.273438 C 262.089844 15.445312 264.890625 16.691406 267.667969 18.003906 C 270.441406 19.3125 273.179688 20.691406 275.886719 22.140625 C 278.59375 23.585938 281.261719 25.097656 283.894531 26.675781 C 286.527344 28.253906 289.117188 29.894531 291.667969 31.597656 C 294.222656 33.304688 296.730469 35.070312 299.195312 36.898438 C 301.660156 38.726562 304.078125 40.613281 306.449219 42.558594 C 308.820312 44.507812 311.144531 46.511719 313.417969 48.570312 C 315.691406 50.632812 317.914062 52.746094 320.082031 54.917969 C 322.253906 57.085938 324.367188 59.308594 326.429688 61.582031 C 328.488281 63.855469 330.492188 66.179688 332.4375 68.550781 C 334.386719 70.921875 336.273438 73.339844 338.101562 75.804688 C 339.929688 78.269531 341.695312 80.777344 343.402344 83.332031 C 345.105469 85.882812 346.746094 88.472656 348.324219 91.105469 C 349.902344 93.738281 351.414062 96.40625 352.859375 99.113281 C 354.304688 101.820312 355.6875 104.558594 356.996094 107.332031 C 358.308594 110.105469 359.554688 112.910156 360.726562 115.746094 C 361.902344 118.582031 363.003906 121.445312 364.039062 124.332031 C 365.074219 127.222656 366.035156 130.136719 366.925781 133.070312 C 367.816406 136.007812 368.636719 138.964844 369.378906 141.941406 C 370.125 144.917969 370.796875 147.910156 371.398438 150.921875 C 371.996094 153.929688 372.519531 156.953125 372.96875 159.988281 C 373.421875 163.023438 373.796875 166.066406 374.097656 169.121094 C 374.398438 172.175781 374.625 175.234375 374.773438 178.300781 C 374.925781 181.363281 375 184.429688 375 187.5 Z M 375 187.5 " fill-opacity="1" fill-rule="nonzero"/><g clip-path="url(#3d798947ab)"><path fill="#ffffff" d="M 287.679688 27.265625 C 289.773438 27.8125 290.726562 26.964844 291.78125 25.234375 C 292.433594 24.179688 293.121094 23.007812 293.160156 21.726562 C 293.28125 16.367188 285.1875 18.398438 283.082031 21.386719 C 282.042969 24.3125 285.066406 26.589844 287.679688 27.265625 Z M 271.628906 38.53125 C 270.722656 42.738281 277.738281 48.015625 280.046875 43.042969 C 280.144531 42.835938 280.277344 42.679688 280.398438 42.511719 C 282.117188 39.523438 282.757812 35.734375 278.453125 34.804688 C 275.585938 34.175781 272.296875 35.410156 271.628906 38.53125 Z M 96.300781 323.789062 C 107.863281 308.339844 115.386719 290.699219 119.65625 271.574219 C 119.980469 270.097656 121.773438 269.867188 122.871094 270.460938 C 123.1875 270.628906 123.476562 270.777344 123.777344 270.945312 C 124.359375 270.714844 125.011719 270.726562 125.582031 271.175781 C 127.03125 267.96875 131.179688 260.527344 139.839844 246.167969 C 138.898438 245.164062 137.941406 244.183594 137 243.179688 C 136.839844 243.011719 136.746094 242.851562 136.648438 242.671875 C 135.472656 241.65625 135.535156 239.285156 137.542969 238.886719 C 139.550781 238.472656 141.535156 237.976562 143.542969 237.578125 C 144.144531 237.226562 144.917969 237.191406 145.667969 237.710938 C 146.164062 238.039062 146.648438 238.378906 147.132812 238.726562 L 147.167969 238.667969 L 147.570312 238.171875 L 148.34375 237.167969 C 148.875 236.5 149.382812 235.835938 149.914062 235.171875 C 150.941406 233.851562 151.957031 232.546875 152.960938 231.25 C 154.980469 228.675781 156.964844 226.15625 158.902344 223.691406 C 162.445312 219.105469 165.832031 214.714844 169.097656 210.527344 C 168.429688 210.03125 167.789062 209.511719 167.136719 208.964844 C 166.847656 208.726562 166.640625 208.445312 166.519531 208.144531 C 165.710938 207.515625 165.296875 206.414062 166.035156 205.335938 C 184.117188 178.925781 205.050781 154.089844 224.5 128.695312 C 224.789062 128.332031 225.054688 127.96875 225.335938 127.609375 C 215.914062 121.8125 206.441406 118.339844 195.039062 119.5 C 186.851562 120.335938 176.898438 122.515625 169.796875 126.84375 C 161.089844 132.132812 153.289062 143.238281 150.289062 152.953125 C 148.558594 158.601562 147.761719 165.875 143.675781 170.457031 C 141.363281 173.023438 139.488281 173.242188 136.878906 174.945312 C 133.671875 177.039062 140.347656 178.820312 140.445312 178.890625 C 144.074219 181.007812 145.402344 184.179688 145.707031 188.265625 C 146.539062 199.578125 137.398438 209.535156 129.597656 216.480469 C 120.539062 224.535156 109.339844 232.074219 99.796875 221.320312 C 94.074219 214.859375 91.269531 230.632812 90.316406 231.964844 C 88.730469 234.167969 87.097656 236.089844 84.800781 237.640625 C 78.136719 242.152344 71.582031 245.960938 66.03125 251.9375 C 59.472656 259.015625 54.625 266.769531 51.769531 275.09375 C 63.863281 275.226562 75.546875 280.308594 84.894531 287.808594 C 92.394531 293.847656 100.136719 305.519531 98.914062 315.671875 C 98.503906 318.949219 97.558594 321.453125 96.300781 323.789062 Z M 138.632812 263.988281 C 140.734375 260.84375 143.445312 257.070312 146.285156 252.6875 C 144.726562 251.199219 143.179688 249.675781 141.679688 248.117188 C 132.957031 262.5 128.386719 269.457031 126.34375 272.023438 C 127.625 273.617188 129.113281 274.925781 130.710938 276.0625 C 131.242188 275.117188 132.015625 273.871094 133.042969 272.265625 C 134.398438 270.171875 136.222656 267.449219 138.632812 263.988281 Z M 174.707031 214.519531 C 173.5 213.734375 172.3125 212.886719 171.140625 212.039062 C 164.511719 220.640625 157.257812 229.992188 149.238281 240.203125 C 150.675781 241.230469 152.105469 242.25 153.542969 243.289062 C 153.832031 242.902344 154.148438 242.503906 154.460938 242.066406 C 155.273438 240.976562 156.070312 239.902344 156.867188 238.835938 C 158.453125 236.671875 160.027344 234.554688 161.574219 232.449219 C 164.667969 228.226562 167.691406 224.113281 170.65625 220.085938 C 172.023438 218.199219 173.378906 216.359375 174.707031 214.519531 Z M 138.269531 280.355469 C 138.75 279.558594 139.367188 278.613281 140.167969 277.429688 C 142.644531 273.558594 146.832031 267.449219 153.09375 258.253906 C 151.414062 257.09375 149.792969 255.796875 148.222656 254.441406 C 145.308594 258.917969 142.71875 262.355469 140.566406 265.355469 C 138.0625 268.753906 136.078125 271.355469 134.519531 273.339844 C 133.371094 274.816406 132.449219 275.941406 131.738281 276.753906 C 133.804688 278.082031 136.03125 279.207031 138.269531 280.355469 Z M 160.050781 247.957031 C 167.367188 237.398438 174.261719 227.464844 180.777344 218.160156 C 180.03125 217.761719 179.28125 217.375 178.578125 216.9375 C 178.007812 216.601562 177.441406 216.25 176.898438 215.898438 C 175.507812 217.785156 174.140625 219.671875 172.738281 221.597656 C 169.773438 225.636719 166.738281 229.761719 163.652344 233.984375 C 162.09375 236.089844 160.519531 238.21875 158.949219 240.375 C 157.847656 241.824219 156.808594 243.265625 155.636719 244.789062 C 157.085938 245.855469 158.574219 246.90625 160.050781 247.957031 Z M 310.140625 25.378906 C 310.019531 25.304688 309.910156 25.222656 309.800781 25.136719 C 300.402344 32.191406 293.96875 42.496094 287.328125 52.066406 C 287.742188 52.382812 288.152344 52.695312 288.5625 53.011719 C 288.683594 53.09375 288.757812 53.214844 288.851562 53.3125 C 296.617188 44.773438 303.632812 34.949219 310.140625 25.378906 Z M 151.304688 272.988281 C 153.722656 269.988281 156.832031 266.382812 160.148438 262.089844 C 158.453125 261.410156 156.820312 260.589844 155.261719 259.644531 C 148.949219 268.902344 144.519531 274.863281 141.65625 278.507812 C 140.808594 279.511719 140.117188 280.332031 139.515625 280.988281 C 140.734375 281.617188 141.921875 282.269531 143.09375 282.996094 C 143.636719 282.292969 144.292969 281.46875 145.089844 280.503906 C 146.613281 278.601562 148.667969 276.121094 151.304688 272.988281 Z M 295.457031 57.851562 C 299.351562 53.421875 311.601562 36.449219 312.304688 29.808594 C 306.183594 38.734375 299.617188 47.710938 292.398438 55.746094 C 293.414062 56.445312 294.429688 57.148438 295.457031 57.851562 Z M 166.0625 252.046875 L 166.496094 251.40625 C 166.894531 250.800781 167.292969 250.210938 167.679688 249.617188 C 168.480469 248.429688 169.144531 247.183594 169.917969 246.023438 C 171.480469 243.710938 172.882812 241.390625 174.371094 239.175781 C 177.320312 234.699219 180.125 230.441406 182.835938 226.375 C 183.996094 224.597656 185.121094 222.890625 186.246094 221.210938 C 185.242188 220.519531 184.164062 219.914062 183.078125 219.359375 C 181.070312 222.238281 179.027344 225.167969 176.921875 228.167969 C 174.394531 231.808594 171.804688 235.558594 169.15625 239.371094 C 167.828125 241.269531 166.484375 243.203125 165.128906 245.152344 C 164.453125 246.132812 163.773438 247.125 163.074219 248.105469 L 162.167969 249.433594 C 163.4375 250.328125 164.753906 251.1875 166.0625 252.046875 Z M 142.644531 288.933594 C 142.550781 288.851562 142.441406 288.753906 142.332031 288.667969 C 141.8125 288.207031 141.59375 287.652344 141.546875 287.097656 C 135.582031 283.175781 128.824219 281.167969 123.960938 275.855469 C 123.828125 275.808594 123.683594 275.761719 123.539062 275.6875 C 123.40625 275.613281 123.257812 275.519531 123.125 275.445312 C 117.636719 298.3125 107.488281 318.730469 91.574219 336.175781 C 92.539062 337.980469 94.476562 339.601562 96.640625 341.003906 C 96.675781 340.824219 96.738281 340.605469 96.832031 340.410156 C 107.402344 319.105469 123.113281 302.21875 142.644531 288.933594 Z M 107.789062 360.710938 C 113.027344 351.3125 95.308594 346.171875 90.21875 341.296875 C 83.480469 334.882812 86.890625 331.496094 91.257812 324.84375 C 99.09375 312.890625 91.136719 297.523438 80.710938 289.949219 C 71.871094 283.515625 61.519531 279.292969 50.5 279.402344 C 48.410156 287.761719 48.300781 296.691406 50.574219 306.089844 C 55.011719 324.441406 71.785156 337.207031 86.457031 347.488281 C 86.820312 347.730469 87.035156 348.046875 87.195312 348.347656 C 87.53125 348.371094 87.894531 348.46875 88.257812 348.734375 C 94.113281 352.714844 100.738281 357.121094 107.789062 360.710938 Z M 165.578125 259.378906 C 165.273438 258.289062 164.910156 257.238281 164.5 256.171875 C 157.484375 251.683594 150.953125 246.566406 144.109375 241.863281 C 143.433594 242.007812 142.753906 242.152344 142.078125 242.296875 C 148.753906 249.433594 155.746094 257.140625 165.578125 259.378906 Z M 243.488281 141.652344 C 260.941406 115.726562 279.953125 90.261719 296.023438 63.425781 C 292.492188 61.105469 289.105469 58.5625 285.492188 56.375 C 265.183594 80.160156 247.089844 106.289062 228.066406 131.089844 C 208.972656 156.011719 188.496094 180.402344 170.621094 206.269531 C 170.984375 206.558594 171.347656 206.851562 171.71875 207.128906 C 178.058594 198.960938 183.828125 191.507812 189.0625 184.757812 C 200.566406 170.035156 209.527344 158.542969 216.371094 149.769531 C 223.242188 141.023438 228.117188 135.046875 231.210938 131.273438 C 234.320312 127.535156 235.757812 125.972656 235.90625 126.070312 C 236.027344 126.191406 234.851562 127.96875 231.972656 131.925781 C 229.09375 135.917969 224.5 141.992188 217.824219 150.882812 C 211.085938 159.738281 202.269531 171.34375 190.949219 186.210938 C 185.726562 192.996094 180.03125 200.449219 173.753906 208.640625 C 174.902344 209.476562 176.0625 210.273438 177.261719 211.046875 C 180.792969 206.21875 184.226562 201.503906 187.5625 196.953125 C 198.28125 182.242188 207.980469 168.957031 216.710938 156.992188 C 234.199219 133.101562 247.828125 114.445312 258.242188 100.21875 C 268.691406 86.003906 275.9375 76.226562 280.59375 70.046875 C 282.9375 66.9375 284.621094 64.734375 285.757812 63.320312 C 286.871094 61.902344 287.4375 61.273438 287.5 61.324219 C 287.582031 61.371094 287.160156 62.109375 286.179688 63.621094 C 285.1875 65.15625 283.617188 67.433594 281.414062 70.636719 C 276.988281 77 269.984375 86.945312 259.730469 101.28125 C 249.4375 115.605469 235.941406 134.347656 218.632812 158.410156 C 209.9375 170.398438 200.273438 183.707031 189.609375 198.441406 C 186.316406 202.964844 182.90625 207.636719 179.425781 212.4375 C 180.488281 213.09375 181.589844 213.746094 182.691406 214.375 C 182.871094 214.484375 183.054688 214.582031 183.222656 214.664062 C 185.351562 211.628906 187.457031 208.652344 189.5 205.738281 C 198.859375 192.441406 207.300781 180.414062 214.921875 169.585938 C 230.21875 148.003906 242.144531 131.164062 251.253906 118.304688 C 260.417969 105.480469 266.746094 96.660156 270.855469 91.070312 C 272.914062 88.289062 274.414062 86.292969 275.402344 85.023438 C 276.394531 83.765625 276.902344 83.183594 276.976562 83.230469 C 277.050781 83.28125 276.6875 83.945312 275.839844 85.3125 C 274.980469 86.679688 273.625 88.773438 271.703125 91.640625 C 267.84375 97.410156 261.703125 106.398438 252.765625 119.355469 C 243.753906 132.277344 231.972656 149.238281 216.867188 170.96875 C 209.296875 181.820312 200.890625 193.855469 191.566406 207.1875 C 189.582031 210.042969 187.5625 212.945312 185.496094 215.898438 C 186.546875 216.46875 187.589844 217.035156 188.566406 217.675781 C 191.738281 212.886719 194.710938 208.375 197.480469 204.199219 C 206.296875 190.941406 213.144531 180.609375 218.390625 172.707031 C 223.675781 164.84375 227.367188 159.460938 229.796875 156.050781 C 232.191406 152.652344 233.328125 151.234375 233.460938 151.332031 C 233.605469 151.429688 232.773438 153.050781 230.621094 156.605469 C 228.480469 160.175781 225.019531 165.714844 219.929688 173.714844 C 214.8125 181.6875 208.101562 192.136719 199.476562 205.519531 C 196.71875 209.753906 193.769531 214.300781 190.601562 219.140625 C 190.71875 219.238281 190.816406 219.347656 190.9375 219.445312 C 209.585938 194.449219 226.058594 167.496094 243.488281 141.652344 Z M 299.714844 60.0625 C 306.535156 50.941406 314.09375 41.710938 317.820312 30.835938 C 317.589844 30.703125 317.394531 30.570312 317.175781 30.425781 C 316.765625 32.78125 315.21875 35.191406 313.792969 37.660156 C 309.523438 45.015625 304.972656 53.324219 299.339844 59.871094 C 299.460938 59.929688 299.582031 60.003906 299.714844 60.0625 Z M 320.335938 26.890625 C 320.988281 27.15625 321.617188 27.4375 322.269531 27.714844 C 322.691406 25.453125 323.734375 23.335938 324.929688 21.277344 C 327.265625 17.238281 329.707031 13.246094 331.691406 9 C 330.503906 7.125 327.953125 6.203125 325.789062 5.234375 C 322.390625 8.464844 319.34375 12.023438 316.257812 15.554688 C 314.6875 17.347656 312.992188 19.101562 310.960938 20.261719 C 311.300781 20.636719 311.636719 21.023438 311.976562 21.421875 C 313.054688 22.195312 314.105469 22.996094 315.167969 23.78125 C 316.851562 21.617188 318.3125 19.765625 319.585938 18.21875 C 321.179688 16.195312 322.4375 14.660156 323.453125 13.523438 C 325.449219 11.199219 326.429688 10.449219 326.71875 10.644531 C 327.023438 10.847656 326.585938 11.960938 324.929688 14.574219 C 324.109375 15.882812 322.957031 17.585938 321.445312 19.691406 C 320.273438 21.289062 318.882812 23.152344 317.25 25.28125 C 317.976562 25.816406 318.703125 26.296875 319.453125 26.78125 C 319.742188 26.746094 320.03125 26.769531 320.335938 26.890625 Z M 328.535156 27.398438 C 329.019531 27.230469 329.960938 24.957031 330.277344 24.421875 C 331.050781 23.140625 331.921875 21.847656 332.453125 20.441406 C 332.851562 19.34375 332.28125 19.210938 331.339844 18.90625 C 331.195312 19.160156 331.050781 19.402344 330.90625 19.65625 C 329.5625 21.871094 327.371094 24.675781 326.585938 27.472656 C 327.300781 27.519531 328.015625 27.570312 328.535156 27.398438 Z M 328.402344 48.085938 C 332.574219 48.085938 333.3125 41.554688 330.15625 39.570312 C 325.679688 36.761719 320.828125 47.628906 328.402344 48.085938 Z M 322.414062 64.613281 C 324.894531 63.320312 326.03125 60.160156 324.664062 57.621094 C 323.128906 54.753906 319.824219 54.039062 317.492188 56.386719 C 315.8125 58.078125 315.0625 60.101562 316.171875 62.277344 C 317.589844 64.152344 320.007812 65.859375 322.414062 64.613281 Z M 139.660156 367.667969 C 159.492188 364.367188 174.78125 354.335938 183.828125 336.105469 C 187.902344 327.867188 188.808594 319.964844 191.554688 311.425781 C 192.351562 308.898438 193.273438 305.726562 195.28125 303.828125 C 196.320312 302.8125 208.789062 294.003906 201.570312 291.570312 C 189.402344 287.472656 190.40625 275.277344 194.386719 264.8125 C 198.714844 253.476562 204.230469 241.246094 216.382812 236.816406 C 219.988281 235.496094 223.507812 236.042969 226.542969 238.28125 C 227.003906 238.644531 231.636719 245.320312 231.707031 238.753906 C 231.730469 237.117188 231.902344 235.558594 232.6875 234.082031 C 236.027344 227.609375 242.230469 224.816406 247.464844 220.121094 C 254.820312 213.550781 263.902344 202.953125 265.015625 192.632812 C 265.933594 184.128906 265.390625 174.65625 262.945312 166.441406 C 259.910156 156.363281 255.144531 150.375 247.332031 143.613281 C 247.238281 143.757812 247.152344 143.902344 247.054688 144.046875 C 229.167969 170.589844 212.273438 198.320312 193.007812 223.894531 C 192.328125 224.789062 191.335938 224.910156 190.503906 224.621094 C 190.066406 224.550781 189.609375 224.332031 189.234375 223.847656 C 188.929688 223.472656 188.59375 223.109375 188.242188 222.769531 C 187.164062 224.402344 186.089844 226.074219 184.964844 227.777344 C 179.910156 235.582031 174.199219 244.195312 167.910156 253.511719 C 168.054688 253.667969 168.1875 253.839844 168.261719 254.042969 C 169.15625 256.320312 170.089844 258.675781 170.257812 261.132812 C 170.292969 261.582031 170.234375 262.039062 170.050781 262.441406 C 169.917969 263.421875 169.191406 264.277344 167.898438 264.132812 C 166.085938 263.917969 164.355469 263.527344 162.6875 263.007812 C 158.996094 267.882812 155.746094 271.476562 153.09375 274.539062 C 150.363281 277.609375 148.160156 279.96875 146.46875 281.722656 C 145.644531 282.546875 144.957031 283.210938 144.339844 283.792969 C 144.507812 283.914062 144.691406 284.011719 144.835938 284.132812 C 145.546875 284.640625 145.804688 285.316406 145.753906 285.972656 C 146.285156 286.429688 146.820312 286.890625 147.351562 287.351562 C 148.269531 288.148438 148.839844 289.914062 147.542969 290.773438 C 127.347656 304.058594 111.1875 321.078125 100.402344 342.796875 C 100.339844 342.917969 100.28125 343 100.207031 343.109375 C 102.023438 344.089844 103.640625 344.925781 104.695312 345.613281 C 111.203125 349.898438 115.484375 355.230469 111.625 362.585938 C 120.660156 366.699219 130.214844 369.21875 139.660156 367.667969 Z M 188.652344 335.921875 C 178.84375 355.714844 162.902344 369.058594 140.492188 371.878906 C 120.417969 374.40625 101.804688 363.144531 85.863281 352.304688 C 85.5 352.039062 85.269531 351.761719 85.125 351.433594 C 84.789062 351.421875 84.425781 351.300781 84.074219 351.058594 C 67.808594 339.648438 49.195312 325.21875 45.820312 304.289062 C 42.566406 283.9375 47.125 266.035156 61.277344 250.789062 C 65.011719 246.75 68.847656 242.574219 73.5625 239.671875 C 79.757812 235.824219 86.445312 232.882812 88.148438 225.046875 C 89.359375 219.527344 93.046875 213.492188 99.882812 215.765625 C 102.820312 216.746094 103.96875 220.558594 106.714844 221.960938 C 113.933594 225.660156 124.46875 215.730469 128.894531 211.144531 C 132.597656 207.273438 152.261719 183.609375 135.328125 182.109375 C 134.335938 182.011719 133.585938 181.347656 133.359375 180.390625 C 132.777344 177.949219 131.191406 173.554688 133.925781 171.789062 C 137.882812 169.210938 140.554688 169.394531 142.523438 163.851562 C 143.40625 161.386719 144.132812 158.917969 144.824219 156.402344 C 148.136719 144.277344 155.273438 131.949219 165.527344 124.449219 C 173.957031 118.28125 187.480469 115.386719 197.625 115.050781 C 209.105469 114.6875 218.453125 118.269531 227.945312 124.171875 C 245.917969 100.433594 263.25 75.71875 282.613281 53.144531 C 282.285156 52.550781 282.261719 51.8125 282.78125 51.085938 C 283.386719 50.226562 283.980469 49.355469 284.582031 48.484375 C 283.894531 48.027344 283.167969 47.496094 282.417969 46.914062 C 276.515625 52.949219 264.445312 45.378906 267.6875 36.691406 C 269.625 31.523438 275.671875 28.816406 280.847656 31.039062 C 286.410156 33.425781 286.953125 38.601562 284.789062 43.34375 C 285.5625 43.949219 286.410156 44.542969 287.003906 44.953125 C 290 40.585938 293.0625 36.207031 296.449219 32.140625 C 295.601562 31.574219 294.621094 30.917969 293.28125 30.011719 C 291.246094 31.65625 288.636719 32.3125 285.636719 31.113281 C 281.136719 29.296875 276.769531 24.945312 279.082031 19.765625 C 279.105469 19.703125 279.152344 19.667969 279.175781 19.597656 C 279.226562 19.488281 279.261719 19.367188 279.335938 19.257812 C 283.785156 11.503906 300.234375 12.832031 297.160156 23.78125 C 296.945312 24.507812 296.691406 25.210938 296.375 25.886719 C 297.777344 26.820312 299.058594 27.675781 299.894531 28.246094 C 302 26.03125 304.261719 23.964844 306.679688 22.113281 C 306.679688 22.050781 306.691406 21.96875 306.691406 21.90625 C 306.449219 21.652344 306.21875 21.398438 306.015625 21.132812 C 305.289062 20.261719 305.410156 19.28125 305.929688 18.566406 C 305.953125 18.421875 306.015625 18.277344 306.085938 18.15625 C 305.566406 16.234375 304.480469 14.636719 305.300781 12.601562 C 306.125 10.632812 308.203125 8.792969 309.617188 7.21875 C 311.007812 5.683594 312.640625 3.699219 314.808594 3.386719 C 316.621094 3.117188 318.097656 4.375 319.28125 5.660156 C 320.683594 4.183594 322.125 2.742188 323.613281 1.386719 C 323.890625 1.121094 324.179688 0.964844 324.496094 0.878906 C 325.085938 0.53125 325.859375 0.445312 326.660156 0.90625 C 329.914062 2.816406 333.746094 3.761719 335.679688 7.316406 C 335.707031 7.351562 335.71875 7.402344 335.730469 7.4375 C 336.285156 7.910156 336.539062 8.660156 336.152344 9.554688 C 335.308594 11.441406 334.398438 13.328125 333.421875 15.179688 C 335.101562 15.929688 336.699219 16.933594 337.035156 18.859375 C 337.410156 20.988281 335.816406 23.441406 334.8125 25.183594 C 333.710938 27.085938 332.71875 29.371094 331.050781 30.8125 C 329.527344 32.128906 327.554688 31.5 325.753906 31.621094 C 325.738281 31.632812 325.726562 31.621094 325.703125 31.621094 C 325.246094 32.542969 324.109375 33.097656 323.117188 32.710938 C 322.703125 32.554688 322.28125 32.382812 321.894531 32.191406 C 321.472656 33.449219 321 34.683594 320.480469 35.878906 C 320.625 35.941406 320.78125 36.023438 320.914062 36.121094 L 322.355469 37.078125 C 322.558594 37.222656 322.742188 37.378906 322.886719 37.5625 C 325.097656 35.3125 328.28125 33.96875 331.230469 35.324219 C 334.859375 36.96875 336.792969 41.203125 336.238281 45.121094 C 335.667969 49.285156 332.910156 52.066406 328.75 52.320312 C 328.570312 52.371094 328.375 52.382812 328.148438 52.382812 C 327.964844 52.382812 327.796875 52.359375 327.625 52.320312 C 322.460938 51.714844 318.882812 46.984375 320.371094 41.746094 C 320.082031 41.675781 319.777344 41.566406 319.476562 41.359375 L 318.253906 40.539062 C 316.402344 44.070312 314.226562 47.480469 311.917969 50.773438 C 312.882812 51.425781 313.984375 52.164062 315.050781 52.867188 C 315.425781 52.550781 315.8125 52.222656 316.222656 51.945312 C 320.371094 49.152344 326.574219 51.097656 328.535156 55.746094 C 330.371094 60.101562 329.429688 65.796875 324.894531 68.15625 C 320.46875 70.46875 315.460938 68.8125 312.679688 64.78125 C 312.667969 64.746094 312.652344 64.699219 312.617188 64.648438 C 312.535156 64.550781 312.449219 64.445312 312.375 64.308594 C 311.035156 61.890625 311.082031 59.339844 312.011719 57.050781 C 310.949219 56.324219 309.847656 55.601562 308.894531 54.957031 C 306.621094 58.042969 304.296875 61.066406 302.070312 64.09375 C 301.539062 64.804688 300.8125 65.046875 300.125 64.964844 C 284.753906 90.746094 266.660156 115.242188 249.753906 140.070312 C 258.957031 148.042969 265.304688 155.894531 267.855469 168.246094 C 269.839844 177.910156 271.65625 190.878906 267.324219 200.183594 C 261.96875 211.738281 254.179688 220.300781 244.175781 227.914062 C 240.523438 230.707031 236.011719 233.804688 236 238.992188 C 236 240.53125 235.929688 241.136719 235.613281 242.5625 C 235.023438 245.308594 229.832031 245.417969 227.933594 245.660156 C 226.953125 245.757812 226.023438 245.394531 225.589844 244.472656 C 221.089844 235.339844 210.09375 244.113281 206.757812 249.363281 C 203.480469 254.539062 200.324219 260.3125 198.472656 266.167969 C 196.5625 272.226562 192.59375 284.035156 201.207031 286.925781 C 203.03125 287.53125 205.863281 288.101562 206.949219 289.9375 C 211.605469 297.898438 204.871094 300.550781 199.996094 305.230469 C 194.90625 310.128906 195.097656 316.761719 193.574219 323.085938 C 192.488281 327.589844 190.707031 331.796875 188.652344 335.921875 Z M 315.460938 7.632812 C 315 7.886719 314.613281 8.210938 314.238281 8.574219 C 313.175781 9.617188 312.195312 10.742188 311.214844 11.890625 C 310.804688 12.363281 309.160156 14.066406 309.242188 14.261719 C 309.460938 14.828125 309.679688 15.398438 309.882812 15.964844 C 312.195312 14.320312 314.058594 11.539062 315.726562 9.589844 C 315.933594 9.359375 316.160156 9.121094 316.378906 8.890625 C 315.945312 8.394531 315.386719 7.726562 315.460938 7.632812 " fill-opacity="1" fill-rule="nonzero"/></g><path fill="#ffffff" d="M 178.167969 339.226562 C 177.464844 340.410156 176.859375 341.523438 176.003906 342.808594 C 172.796875 347.597656 168.25 352.257812 162.660156 355.921875 C 157.097656 359.597656 151.074219 361.945312 145.441406 363.15625 C 139.816406 364.414062 134.566406 364.546875 130.261719 364.160156 C 129.183594 364.101562 128.15625 363.953125 127.203125 363.785156 C 126.222656 363.628906 125.339844 363.507812 124.480469 363.335938 C 122.800781 362.914062 121.347656 362.574219 120.222656 362.175781 C 117.984375 361.367188 116.777344 360.820312 116.824219 360.628906 C 116.980469 360.082031 122.027344 361.957031 130.371094 362.105469 C 134.53125 362.226562 139.515625 361.875 144.847656 360.566406 C 150.167969 359.261719 155.816406 356.960938 161.078125 353.503906 C 166.339844 350.054688 170.667969 345.746094 173.8125 341.296875 C 174.550781 340.253906 175.300781 338.984375 176.003906 337.894531 C 176.582031 336.757812 177.210938 335.695312 177.742188 334.59375 C 178.820312 332.402344 179.691406 330.285156 180.453125 328.324219 C 181.941406 324.394531 182.957031 321.101562 183.789062 318.878906 C 184.601562 316.613281 185.121094 315.394531 185.316406 315.453125 C 185.507812 315.515625 185.351562 316.832031 184.878906 319.167969 C 184.394531 321.503906 183.65625 324.890625 182.375 328.992188 C 181.734375 331.035156 180.9375 333.273438 179.921875 335.621094 C 179.414062 336.792969 178.785156 337.980469 178.167969 339.226562 " fill-opacity="1" fill-rule="nonzero"/><path fill="#ffffff" d="M 200.648438 296.316406 L 198.957031 297.125 C 196.476562 298.273438 194.566406 299.933594 193.117188 301.699219 C 192.753906 302.144531 192.414062 302.59375 192.085938 303.015625 C 191.796875 303.476562 191.507812 303.925781 191.242188 304.347656 C 190.660156 305.183594 190.25 306.042969 189.8125 306.792969 C 188.179688 309.851562 187.203125 311.65625 186.910156 311.523438 C 186.667969 311.425781 187.140625 309.453125 188.410156 306.136719 C 188.761719 305.316406 189.074219 304.394531 189.597656 303.441406 C 189.851562 302.933594 190.089844 302.449219 190.382812 301.929688 C 190.707031 301.433594 191.035156 300.925781 191.386719 300.390625 C 192.546875 298.746094 194.167969 297.101562 196.1875 295.746094 C 194.808594 294.574219 193.371094 293.3125 191.953125 291.851562 C 190.066406 289.9375 188.265625 287.507812 187.273438 284.605469 C 184.550781 274.234375 188.058594 265.125 191.09375 259.5 C 194.226562 253.800781 196.707031 250.703125 196.996094 250.875 C 197.371094 251.128906 195.511719 254.660156 192.945312 260.394531 C 191.738281 263.285156 190.308594 266.746094 189.65625 270.789062 C 189.390625 271.792969 189.402344 272.796875 189.269531 273.835938 C 189.089844 274.839844 189.136719 275.976562 189.125 277.140625 C 189.136719 277.695312 189.136719 278.300781 189.136719 278.882812 C 189.183594 279.390625 189.257812 279.910156 189.316406 280.429688 C 189.367188 281.554688 189.742188 282.59375 190.019531 283.671875 C 191.652344 288.464844 195.910156 291.730469 199.257812 294.972656 L 200.648438 296.316406 " fill-opacity="1" fill-rule="nonzero"/><path fill="#ffffff" d="M 257.746094 204.453125 C 257.167969 205.347656 256.574219 206.269531 255.992188 207.175781 C 255.351562 208.058594 254.652344 208.882812 253.984375 209.765625 C 253.394531 210.46875 252.886719 211.21875 252.242188 211.871094 C 251.613281 212.535156 250.972656 213.1875 250.34375 213.84375 C 249.097656 215.222656 247.757812 216.285156 246.460938 217.363281 C 245.289062 218.441406 243.585938 219.660156 242.144531 220.386719 C 241.445312 220.773438 240.765625 221.136719 240.078125 221.523438 C 239.4375 221.828125 238.769531 222.359375 238.117188 222.808594 C 237.078125 223.628906 235.964844 224.753906 235.046875 225.855469 C 234.550781 226.386719 234.152344 226.980469 233.714844 227.539062 C 233.304688 228.058594 232.894531 228.675781 232.507812 229.304688 L 231.9375 230.222656 C 231.828125 230.429688 231.695312 230.730469 231.574219 230.984375 C 231.382812 231.554688 231.210938 232.148438 231.101562 232.800781 C 230.875 234.09375 230.726562 235.582031 230.085938 236.996094 L 229.519531 238.230469 L 228.429688 237.507812 C 225.359375 235.484375 222.636719 233.648438 219.964844 233.199219 C 219.359375 233.019531 218.609375 232.992188 217.921875 232.933594 C 217.363281 232.882812 216.6875 232.921875 216.105469 232.957031 C 214.910156 233.101562 213.820312 233.320312 212.902344 233.695312 C 209.140625 235.136719 207.726562 237.265625 207.484375 237.023438 C 207.410156 236.960938 207.664062 236.417969 208.367188 235.523438 C 209.117188 234.652344 210.398438 233.453125 212.40625 232.496094 C 213.375 231.988281 214.558594 231.652344 215.902344 231.382812 C 216.578125 231.300781 217.230469 231.203125 218.015625 231.214844 C 218.71875 231.226562 219.40625 231.214844 220.230469 231.371094 C 223.035156 231.699219 225.695312 233.1875 228.34375 234.785156 C 228.492188 234.070312 228.585938 233.285156 228.695312 232.402344 C 228.804688 231.6875 228.972656 230.914062 229.242188 230.113281 C 229.410156 229.714844 229.53125 229.363281 229.785156 228.929688 L 230.328125 227.996094 C 230.691406 227.367188 231.078125 226.714844 231.574219 226.074219 C 232.035156 225.433594 232.480469 224.742188 233 224.160156 C 234.03125 222.902344 235.082031 221.742188 236.507812 220.582031 C 237.164062 220.121094 237.753906 219.625 238.554688 219.191406 C 239.277344 218.789062 240.027344 218.355469 240.765625 217.929688 C 242.242188 217.121094 243.28125 216.371094 244.613281 215.171875 C 245.917969 214.085938 247.261719 212.984375 248.347656 211.761719 C 248.917969 211.15625 249.511719 210.550781 250.078125 209.945312 C 250.683594 209.328125 251.167969 208.605469 251.722656 207.960938 C 252.363281 207.128906 253.03125 206.328125 253.621094 205.507812 C 254.191406 204.648438 254.734375 203.789062 255.292969 202.941406 L 256.113281 201.671875 C 256.320312 201.332031 256.585938 200.789062 256.828125 200.363281 C 257.3125 199.457031 257.796875 198.550781 258.121094 197.679688 C 259.667969 194.207031 260.601562 190.480469 261 186.949219 C 261.449219 183.378906 261.167969 179.992188 260.757812 176.773438 C 260.3125 173.53125 259.765625 170.605469 258.882812 168.027344 C 257.140625 162.800781 255.0625 158.808594 253.246094 156.363281 C 251.421875 153.898438 250.007812 152.890625 250.152344 152.675781 C 250.210938 152.554688 251.894531 153.265625 254.117188 155.652344 C 256.320312 158.011719 258.761719 162.027344 260.832031 167.335938 C 261.882812 170.035156 262.585938 173.15625 263.128906 176.410156 C 263.683594 179.703125 264.070312 183.390625 263.660156 187.214844 C 263.296875 191.050781 262.378906 194.96875 260.710938 198.890625 C 260.324219 199.894531 259.839844 200.800781 259.367188 201.695312 C 259.101562 202.179688 258.933594 202.566406 258.605469 203.109375 L 257.746094 204.453125 " fill-opacity="1" fill-rule="nonzero"/><path fill="#ffffff" d="M 184.382812 287.820312 C 186.972656 291.125 185.328125 292.914062 182.96875 293.3125 C 182.316406 293.980469 181.445312 294.632812 180.285156 295.191406 C 169.882812 300.160156 167.320312 283.839844 169.761719 277.71875 C 172.15625 271.742188 175.640625 266.347656 179.28125 261.0625 C 180.914062 258.691406 182.652344 256.332031 184.140625 253.851562 C 184.347656 253.5 184.734375 252.507812 185.097656 251.296875 C 185.277344 250.5 185.472656 249.675781 185.605469 248.855469 C 185.652344 248.671875 185.6875 248.515625 185.761719 248.359375 C 186.136719 245.902344 185.945312 243.699219 183.972656 244.21875 C 183.984375 244.523438 183.972656 244.824219 183.949219 245.140625 C 183.949219 245.25 183.9375 245.332031 183.9375 245.429688 C 183.921875 245.480469 183.910156 245.492188 183.921875 245.515625 C 183.921875 245.539062 183.910156 245.550781 183.910156 245.585938 C 183.839844 246.300781 183.488281 246.953125 182.640625 247.269531 C 181.902344 247.535156 181.289062 247.523438 180.550781 247.304688 C 180.488281 247.292969 180.417969 247.28125 180.367188 247.269531 C 179.714844 247.414062 179.109375 247.195312 178.664062 246.785156 C 178.566406 246.773438 178.46875 246.785156 178.382812 246.773438 C 177.355469 246.410156 176.558594 245.117188 177.03125 244.039062 C 177.695312 242.539062 178.878906 241.148438 180.609375 241.097656 C 190.273438 235.402344 192.367188 247.292969 188.386719 255.058594 C 187.296875 258.289062 185.882812 261.363281 184.335938 264.484375 C 182.242188 268.660156 171.25 285.085938 177.539062 288.800781 C 177.683594 288.316406 177.949219 287.808594 178.3125 287.265625 C 179.894531 284.894531 182.328125 285.511719 183.609375 287.265625 C 183.910156 287.398438 184.191406 287.566406 184.382812 287.820312 " fill-opacity="1" fill-rule="nonzero"/><path fill="#ffffff" d="M 82.902344 339.347656 L 82.175781 340.484375 L 81.0625 339.757812 C 79.625 338.828125 78.136719 337.871094 76.636719 336.890625 C 75.113281 335.9375 73.734375 334.824219 72.234375 333.78125 L 71.132812 332.984375 C 70.925781 332.828125 70.792969 332.730469 70.539062 332.523438 L 69.996094 332.078125 C 69.257812 331.449219 68.519531 330.816406 67.78125 330.175781 C 67.105469 329.5 66.417969 328.808594 65.726562 328.097656 C 65.039062 327.40625 64.457031 326.609375 63.792969 325.859375 C 61.011719 322.375 58.90625 318.609375 57.25 314.777344 C 56.414062 312.816406 55.796875 310.976562 55.15625 309.101562 C 54.878906 308.160156 54.601562 307.214844 54.324219 306.296875 C 54.066406 305.351562 53.875 304.394531 53.644531 303.476562 C 52.871094 299.75 52.617188 296.085938 52.917969 292.699219 C 53.171875 289.285156 54.140625 286.238281 55.085938 283.585938 L 55.398438 282.714844 L 56.28125 282.945312 C 61.457031 284.324219 65.570312 285.996094 68.277344 287.421875 C 70.820312 288.996094 72.113281 290.035156 72.027344 290.191406 C 71.90625 290.375 70.40625 289.648438 67.734375 288.390625 C 65.183594 287.410156 61.480469 286.199219 56.742188 285.136719 C 56.0625 287.472656 55.410156 290.058594 55.289062 292.867188 C 55.132812 296.011719 55.445312 299.398438 56.257812 302.90625 C 56.488281 303.765625 56.679688 304.664062 56.933594 305.558594 C 57.210938 306.429688 57.503906 307.324219 57.78125 308.230469 C 58.410156 310.023438 59.085938 311.945312 59.875 313.675781 C 61.445312 317.246094 63.464844 320.8125 66.066406 324.042969 C 66.671875 324.734375 67.203125 325.496094 67.855469 326.136719 C 68.484375 326.789062 69.125 327.441406 69.753906 328.085938 C 70.433594 328.664062 71.109375 329.257812 71.785156 329.839844 L 72.28125 330.296875 C 72.390625 330.382812 72.609375 330.578125 72.777344 330.710938 L 73.84375 331.582031 C 75.304688 332.644531 76.660156 333.890625 78.085938 334.847656 C 79.128906 335.546875 80.144531 336.226562 81.160156 336.902344 C 81.96875 335.378906 83.082031 332.789062 83.84375 330.757812 C 84.75 328.289062 85.695312 325.761719 86.855469 323.546875 C 89.191406 319.480469 90.472656 315.625 89.976562 312.417969 C 89.503906 309.199219 87.847656 306.949219 86.769531 305.472656 C 85.671875 303.984375 84.980469 303.222656 85.113281 303.089844 C 85.199219 302.992188 86.082031 303.539062 87.449219 304.890625 C 88.753906 306.246094 90.796875 308.4375 91.621094 312.125 C 92.019531 313.953125 91.933594 316.070312 91.414062 318.175781 C 90.917969 320.292969 89.953125 322.519531 88.886719 324.601562 C 87.921875 326.621094 87.132812 328.992188 86.289062 331.484375 C 85.429688 333.988281 84.558594 336.699219 82.902344 339.347656 " fill-opacity="1" fill-rule="nonzero"/><path fill="#ffffff" d="M 154.390625 222.976562 C 154.96875 224.574219 154.0625 226.242188 152.9375 227.34375 C 152.105469 228.152344 150.640625 227.960938 149.902344 227.113281 C 149.84375 227.027344 149.816406 226.933594 149.746094 226.847656 C 149.175781 226.59375 148.753906 226.074219 148.691406 225.371094 C 148.644531 225.324219 148.609375 225.25 148.558594 225.203125 C 148.136719 224.5625 147.894531 224.054688 147.882812 223.277344 C 147.871094 222.394531 148.585938 221.621094 149.382812 221.308594 C 149.660156 221.171875 149.9375 221.066406 150.242188 220.957031 C 149.804688 216.878906 141.472656 223.785156 140.492188 225.140625 C 138.714844 227.609375 137.023438 230.136719 135.257812 232.617188 C 131.714844 237.675781 127.902344 243.363281 122.859375 247.027344 C 117.914062 250.644531 103.027344 253.34375 103.933594 242.527344 C 104.015625 241.546875 104.269531 240.410156 104.707031 239.355469 C 104.539062 237.359375 105.636719 235.414062 108.285156 235.777344 C 108.660156 235.679688 109.0625 235.644531 109.496094 235.667969 C 112.070312 235.8125 114.042969 240.191406 111.683594 241.886719 C 111.320312 242.152344 110.972656 242.355469 110.621094 242.539062 C 116.148438 247.851562 126.609375 232.761719 129.8125 229.28125 C 132.609375 226.253906 135.351562 223.328125 138.449219 220.773438 C 144.230469 214.109375 156.300781 211.894531 154.390625 222.976562 " fill-opacity="1" fill-rule="nonzero"/><path fill="#ffffff" d="M 212.382812 126.601562 C 212.234375 126.808594 210.785156 125.839844 207.847656 125.007812 C 204.894531 124.171875 200.433594 123.652344 194.929688 123.871094 C 192.207031 123.953125 189.28125 124.472656 186.089844 125.210938 C 182.945312 125.960938 179.679688 126.917969 176.484375 128.585938 C 173.328125 130.21875 170.183594 132.410156 167.488281 135.097656 C 166.773438 135.714844 166.109375 136.464844 165.433594 137.261719 C 165.117188 137.625 164.707031 138.070312 164.476562 138.375 L 163.582031 139.597656 C 162.976562 140.40625 162.371094 141.253906 161.765625 142.066406 C 161.199219 142.921875 160.703125 143.832031 160.160156 144.714844 C 159.734375 145.464844 159.226562 146.179688 158.863281 146.953125 C 158.527344 147.714844 158.164062 148.464844 157.800781 149.214844 C 157.039062 150.667969 156.46875 152.324219 155.914062 153.933594 C 155.261719 155.601562 154.933594 156.835938 154.703125 158.503906 C 154.582031 159.351562 154.4375 160.175781 154.304688 161.023438 C 154.183594 161.917969 153.941406 162.644531 153.738281 163.417969 C 153.144531 165.171875 152.453125 166.574219 151.644531 167.964844 C 151.269531 168.679688 150.796875 169.332031 150.351562 169.988281 C 149.925781 170.6875 149.46875 171.28125 148.996094 171.824219 L 148.320312 172.683594 C 148.003906 173.070312 147.714844 173.3125 147.398438 173.617188 C 146.757812 174.136719 146.082031 174.570312 145.441406 174.910156 C 144.691406 175.335938 143.976562 175.710938 143.359375 176.085938 C 145.789062 177.996094 148.125 179.957031 149.429688 182.460938 C 149.867188 183.199219 150.097656 183.839844 150.351562 184.480469 C 150.640625 185.21875 150.785156 185.871094 150.941406 186.535156 C 151.183594 187.878906 151.269531 189.101562 151.148438 190.214844 C 150.96875 192.40625 150.300781 194.011719 149.734375 195.042969 C 149.152344 196.011719 148.753906 196.445312 148.65625 196.410156 C 148.332031 196.277344 149.832031 194.195312 149.84375 190.15625 C 149.878906 189.148438 149.695312 188.0625 149.40625 186.886719 C 149.226562 186.34375 149.03125 185.714844 148.789062 185.183594 C 148.5 184.566406 148.199219 183.875 147.808594 183.367188 C 146.445312 181.019531 143.769531 179.144531 140.785156 176.992188 L 139.71875 176.207031 L 140.664062 175.25 C 141.761719 174.136719 143.117188 173.472656 144.230469 172.792969 C 144.8125 172.480469 145.308594 172.117188 145.765625 171.742188 C 145.949219 171.523438 146.191406 171.292969 146.347656 171.125 L 146.988281 170.253906 C 147.460938 169.683594 147.882812 169.078125 148.222656 168.5 C 148.585938 167.894531 149.007812 167.324219 149.320312 166.671875 C 150.035156 165.402344 150.675781 163.972656 151.089844 162.703125 C 151.269531 161.929688 151.523438 161.132812 151.597656 160.40625 C 151.703125 159.65625 151.8125 158.867188 151.921875 158.082031 C 152.089844 156.484375 152.636719 154.464844 153.214844 152.976562 C 153.75 151.367188 154.292969 149.734375 155.140625 148.089844 C 155.527344 147.277344 155.902344 146.457031 156.300781 145.621094 C 156.6875 144.785156 157.207031 144.035156 157.65625 143.25 C 158.222656 142.304688 158.753906 141.351562 159.359375 140.457031 C 160.011719 139.585938 160.640625 138.703125 161.269531 137.84375 L 162.238281 136.558594 C 162.636719 136.0625 162.929688 135.773438 163.289062 135.363281 C 163.957031 134.589844 164.632812 133.824219 165.445312 133.101562 C 168.492188 130.148438 171.839844 127.898438 175.300781 126.191406 C 178.722656 124.472656 182.328125 123.519531 185.59375 122.863281 C 188.832031 122.222656 191.992188 121.777344 194.882812 121.8125 C 200.589844 121.847656 205.210938 122.730469 208.195312 123.941406 C 211.195312 125.164062 212.464844 126.496094 212.382812 126.601562 " fill-opacity="1" fill-rule="nonzero"/><path fill="#ffffff" d="M 139.417969 211.109375 C 139.695312 211.339844 137.6875 214.75 133.453125 219.699219 C 129.269531 224.535156 122 231.046875 111.335938 232.171875 C 108.273438 232.253906 105.382812 231.433594 102.90625 230.378906 C 101.03125 229.558594 99.359375 228.664062 97.777344 227.792969 C 97.21875 230.152344 96.253906 232.253906 95.128906 233.925781 C 94.753906 234.433594 94.402344 234.917969 94.050781 235.414062 C 93.664062 235.859375 93.289062 236.273438 92.925781 236.660156 C 92.226562 237.492188 91.464844 238.136719 90.824219 238.753906 C 88.160156 241.085938 86.492188 242.25 86.300781 242.054688 C 86.09375 241.835938 87.425781 240.265625 89.710938 237.664062 C 90.242188 236.996094 90.894531 236.296875 91.488281 235.472656 C 91.789062 235.050781 92.09375 234.640625 92.417969 234.203125 C 92.710938 233.742188 93.011719 233.257812 93.289062 232.777344 C 94.425781 230.78125 95.308594 228.410156 95.515625 225.675781 L 95.660156 223.8125 L 97.402344 224.621094 C 101.636719 226.628906 106.171875 229.449219 111.238281 229.265625 C 112.351562 229.144531 113.449219 229.121094 114.515625 228.785156 C 115.035156 228.648438 115.53125 228.53125 116.050781 228.410156 C 116.582031 228.203125 117.140625 227.996094 117.671875 227.792969 C 118.75 227.378906 119.824219 227.003906 120.71875 226.496094 C 121.625 225.988281 122.570312 225.648438 123.429688 225.046875 C 126.949219 223 129.691406 220.449219 131.96875 218.292969 C 136.453125 213.84375 139.066406 210.816406 139.417969 211.109375 " fill-opacity="1" fill-rule="nonzero"/></svg>